<?xml version="1.0" encoding="utf-8"?>
<!-- Generator: Adobe Illustrator 28.0.0, SVG Export Plug-In . SVG Version: 6.00 Build 0)  -->
<svg
    version="1.1"
    id="svg1"
    xmlns:sodipodi="http://sodipodi.sourceforge.net/DTD/sodipodi-0.dtd"
    xmlns:inkscape="http://www.inkscape.org/namespaces/inkscape"
    xmlns:svg="http://www.w3.org/2000/svg"
    inkscape:version="1.3.2 (091e20e, 2023-11-25, custom)"
    xmlns="http://www.w3.org/2000/svg"
    xmlns:xlink="http://www.w3.org/1999/xlink"
    x="0px"
    y="0px"
    viewBox="0 0 2799 2653.5"
    style="enable-background: new 0 0 2799 2653.5"
    xml:space="preserve"
>
    <style type="text/css">
        .st0 {
            fill: #769656;
        }
        .st1 {
            fill: #eeeed2;
        }
    </style>
    <sodipodi:namedview
        bordercolor="#000000"
        borderopacity="0.25"
        id="namedview1"
        inkscape:current-layer="layer1"
        inkscape:cx="2469.2168"
        inkscape:cy="1497.6521"
        inkscape:deskcolor="#d1d1d1"
        inkscape:document-units="mm"
        inkscape:pagecheckerboard="0"
        inkscape:pageopacity="0.0"
        inkscape:showpageshadow="2"
        inkscape:window-height="1057"
        inkscape:window-maximized="1"
        inkscape:window-width="1920"
        inkscape:window-x="1358"
        inkscape:window-y="-8"
        inkscape:zoom="0.3535534"
        pagecolor="#ffffff"
        showguides="false"
    >
        <sodipodi:guide
            id="guide3"
            inkscape:locked="false"
            orientation="1,0"
            position="180.68852,395.18033"
        ></sodipodi:guide>

        <sodipodi:guide
            id="guide4"
            inkscape:color="rgb(167,0,255)"
            inkscape:label="Мера"
            inkscape:locked="false"
            orientation="-0.99998,-0.00630618"
            position="512.762,362.354"
        >
        </sodipodi:guide>

        <sodipodi:guide
            id="guide5"
            inkscape:color="rgb(167,0,255)"
            inkscape:label="Базовый"
            inkscape:locked="false"
            orientation="-0.822626,-0.568583"
            position="512.762,362.354"
        >
        </sodipodi:guide>

        <sodipodi:guide
            id="guide6"
            inkscape:color="rgb(167,0,255)"
            inkscape:label=""
            inkscape:locked="false"
            orientation="-0,1"
            position="512.762,362.354"
        >
        </sodipodi:guide>

        <sodipodi:guide
            id="guide7"
            inkscape:color="rgb(167,0,255)"
            inkscape:label="Начало"
            inkscape:locked="false"
            orientation="1,0"
            position="512.762,362.354"
        >
        </sodipodi:guide>

        <sodipodi:guide
            id="guide8"
            inkscape:color="rgb(167,0,255)"
            inkscape:label="Конец"
            inkscape:locked="false"
            orientation="-0,1"
            position="510.91,656.042"
        >
        </sodipodi:guide>

        <sodipodi:guide
            id="guide9"
            inkscape:color="rgb(167,0,255)"
            inkscape:label=""
            inkscape:locked="false"
            orientation="1,0"
            position="510.91,656.042"
        >
        </sodipodi:guide>

        <sodipodi:guide
            id="guide10"
            inkscape:color="rgb(167,0,255)"
            inkscape:label=""
            inkscape:locked="false"
            orientation="0.826195,-0.563384"
            position="512.762,362.354"
        >
        </sodipodi:guide>

        <sodipodi:guide
            id="guide11"
            inkscape:color="rgb(167,0,255)"
            inkscape:label="Пересечение 1"
            inkscape:locked="false"
            orientation="0.826195,-0.563384"
            position="512.746,365.025"
        >
        </sodipodi:guide>

        <sodipodi:guide
            id="guide12"
            inkscape:color="rgb(167,0,255)"
            inkscape:label="Пересечение 2"
            inkscape:locked="false"
            orientation="0.826195,-0.563384"
            position="510.963,647.773"
        >
        </sodipodi:guide>

        <sodipodi:guide
            id="guide13"
            inkscape:color="rgb(167,0,255)"
            inkscape:label="Пересечение 3"
            inkscape:locked="false"
            orientation="0.826195,-0.563384"
            position="510.91,656.042"
        >
        </sodipodi:guide>

        <sodipodi:guide
            id="guide14"
            inkscape:color="rgb(167,0,255)"
            inkscape:label="Мера"
            inkscape:locked="false"
            orientation="-0.99998,-0.00630618"
            position="512.762,362.354"
        >
        </sodipodi:guide>

        <sodipodi:guide
            id="guide15"
            inkscape:color="rgb(167,0,255)"
            inkscape:label="Базовый"
            inkscape:locked="false"
            orientation="-0.789459,-0.613804"
            position="512.762,362.354"
        >
        </sodipodi:guide>

        <sodipodi:guide
            id="guide16"
            inkscape:color="rgb(167,0,255)"
            inkscape:label=""
            inkscape:locked="false"
            orientation="-0,1"
            position="512.762,362.354"
        >
        </sodipodi:guide>

        <sodipodi:guide
            id="guide17"
            inkscape:color="rgb(167,0,255)"
            inkscape:label="Начало"
            inkscape:locked="false"
            orientation="1,0"
            position="512.762,362.354"
        >
        </sodipodi:guide>

        <sodipodi:guide
            id="guide18"
            inkscape:color="rgb(167,0,255)"
            inkscape:label="Конец"
            inkscape:locked="false"
            orientation="-0,1"
            position="510.91,656.042"
        >
        </sodipodi:guide>

        <sodipodi:guide
            id="guide19"
            inkscape:color="rgb(167,0,255)"
            inkscape:label=""
            inkscape:locked="false"
            orientation="1,0"
            position="510.91,656.042"
        >
        </sodipodi:guide>

        <sodipodi:guide
            id="guide20"
            inkscape:color="rgb(167,0,255)"
            inkscape:label=""
            inkscape:locked="false"
            orientation="0.793314,-0.608813"
            position="512.762,362.354"
        >
        </sodipodi:guide>

        <sodipodi:guide
            id="guide21"
            inkscape:color="rgb(167,0,255)"
            inkscape:label="Пересечение 1"
            inkscape:locked="false"
            orientation="0.793314,-0.608813"
            position="512.746,365.025"
        >
        </sodipodi:guide>

        <sodipodi:guide
            id="guide22"
            inkscape:color="rgb(167,0,255)"
            inkscape:label="Пересечение 2"
            inkscape:locked="false"
            orientation="0.793314,-0.608813"
            position="510.963,647.773"
        >
        </sodipodi:guide>

        <sodipodi:guide
            id="guide23"
            inkscape:color="rgb(167,0,255)"
            inkscape:label="Пересечение 3"
            inkscape:locked="false"
            orientation="0.793314,-0.608813"
            position="510.91,656.042"
        >
        </sodipodi:guide>

        <sodipodi:guide
            id="guide24"
            inkscape:color="rgb(167,0,255)"
            inkscape:label="Мера"
            inkscape:locked="false"
            orientation="-0.99998,-0.00630618"
            position="512.762,362.354"
        >
        </sodipodi:guide>

        <sodipodi:guide
            id="guide25"
            inkscape:color="rgb(167,0,255)"
            inkscape:label="Базовый"
            inkscape:locked="false"
            orientation="-0.7819,-0.623404"
            position="512.762,362.354"
        >
        </sodipodi:guide>

        <sodipodi:guide
            id="guide26"
            inkscape:color="rgb(167,0,255)"
            inkscape:label=""
            inkscape:locked="false"
            orientation="-0,1"
            position="512.762,362.354"
        >
        </sodipodi:guide>

        <sodipodi:guide
            id="guide27"
            inkscape:color="rgb(167,0,255)"
            inkscape:label="Начало"
            inkscape:locked="false"
            orientation="1,0"
            position="512.762,362.354"
        >
        </sodipodi:guide>

        <sodipodi:guide
            id="guide28"
            inkscape:color="rgb(167,0,255)"
            inkscape:label="Конец"
            inkscape:locked="false"
            orientation="-0,1"
            position="510.91,656.042"
        >
        </sodipodi:guide>

        <sodipodi:guide
            id="guide29"
            inkscape:color="rgb(167,0,255)"
            inkscape:label=""
            inkscape:locked="false"
            orientation="1,0"
            position="510.91,656.042"
        >
        </sodipodi:guide>

        <sodipodi:guide
            id="guide30"
            inkscape:color="rgb(167,0,255)"
            inkscape:label=""
            inkscape:locked="false"
            orientation="0.785815,-0.618461"
            position="512.762,362.354"
        >
        </sodipodi:guide>

        <sodipodi:guide
            id="guide31"
            inkscape:color="rgb(167,0,255)"
            inkscape:label="Пересечение 1"
            inkscape:locked="false"
            orientation="0.785815,-0.618461"
            position="512.746,365.025"
        >
        </sodipodi:guide>

        <sodipodi:guide
            id="guide32"
            inkscape:color="rgb(167,0,255)"
            inkscape:label="Пересечение 2"
            inkscape:locked="false"
            orientation="0.785815,-0.618461"
            position="510.963,647.773"
        >
        </sodipodi:guide>

        <sodipodi:guide
            id="guide33"
            inkscape:color="rgb(167,0,255)"
            inkscape:label="Пересечение 3"
            inkscape:locked="false"
            orientation="0.785815,-0.618461"
            position="510.91,656.042"
        >
        </sodipodi:guide>

        <sodipodi:guide
            id="guide34"
            inkscape:color="rgb(167,0,255)"
            inkscape:label="Мера"
            inkscape:locked="false"
            orientation="-0.99998,-0.00630618"
            position="512.762,362.354"
        >
        </sodipodi:guide>

        <sodipodi:guide
            id="guide35"
            inkscape:color="rgb(167,0,255)"
            inkscape:label="Базовый"
            inkscape:locked="false"
            orientation="-0.779974,-0.625812"
            position="512.762,362.354"
        >
        </sodipodi:guide>

        <sodipodi:guide
            id="guide36"
            inkscape:color="rgb(167,0,255)"
            inkscape:label=""
            inkscape:locked="false"
            orientation="-0,1"
            position="512.762,362.354"
        >
        </sodipodi:guide>

        <sodipodi:guide
            id="guide37"
            inkscape:color="rgb(167,0,255)"
            inkscape:label="Начало"
            inkscape:locked="false"
            orientation="1,0"
            position="512.762,362.354"
        >
        </sodipodi:guide>

        <sodipodi:guide
            id="guide38"
            inkscape:color="rgb(167,0,255)"
            inkscape:label="Конец"
            inkscape:locked="false"
            orientation="-0,1"
            position="510.91,656.042"
        >
        </sodipodi:guide>

        <sodipodi:guide
            id="guide39"
            inkscape:color="rgb(167,0,255)"
            inkscape:label=""
            inkscape:locked="false"
            orientation="1,0"
            position="510.91,656.042"
        >
        </sodipodi:guide>

        <sodipodi:guide
            id="guide40"
            inkscape:color="rgb(167,0,255)"
            inkscape:label=""
            inkscape:locked="false"
            orientation="0.783905,-0.62088"
            position="512.762,362.354"
        >
        </sodipodi:guide>

        <sodipodi:guide
            id="guide41"
            inkscape:color="rgb(167,0,255)"
            inkscape:label="Пересечение 1"
            inkscape:locked="false"
            orientation="0.783905,-0.62088"
            position="512.746,365.025"
        >
        </sodipodi:guide>

        <sodipodi:guide
            id="guide42"
            inkscape:color="rgb(167,0,255)"
            inkscape:label="Пересечение 2"
            inkscape:locked="false"
            orientation="0.783905,-0.62088"
            position="510.963,647.773"
        >
        </sodipodi:guide>

        <sodipodi:guide
            id="guide43"
            inkscape:color="rgb(167,0,255)"
            inkscape:label="Пересечение 3"
            inkscape:locked="false"
            orientation="0.783905,-0.62088"
            position="510.91,656.042"
        >
        </sodipodi:guide>

        <sodipodi:guide
            id="guide44"
            inkscape:color="rgb(167,0,255)"
            inkscape:label="Мера"
            inkscape:locked="false"
            orientation="-0.99998,-0.00630618"
            position="512.762,362.354"
        >
        </sodipodi:guide>

        <sodipodi:guide
            id="guide45"
            inkscape:color="rgb(167,0,255)"
            inkscape:label="Базовый"
            inkscape:locked="false"
            orientation="-0.77947,-0.62644"
            position="512.762,362.354"
        >
        </sodipodi:guide>

        <sodipodi:guide
            id="guide46"
            inkscape:color="rgb(167,0,255)"
            inkscape:label=""
            inkscape:locked="false"
            orientation="-0,1"
            position="512.762,362.354"
        >
        </sodipodi:guide>

        <sodipodi:guide
            id="guide47"
            inkscape:color="rgb(167,0,255)"
            inkscape:label="Начало"
            inkscape:locked="false"
            orientation="1,0"
            position="512.762,362.354"
        >
        </sodipodi:guide>

        <sodipodi:guide
            id="guide48"
            inkscape:color="rgb(167,0,255)"
            inkscape:label="Конец"
            inkscape:locked="false"
            orientation="-0,1"
            position="510.91,656.042"
        >
        </sodipodi:guide>

        <sodipodi:guide
            id="guide49"
            inkscape:color="rgb(167,0,255)"
            inkscape:label=""
            inkscape:locked="false"
            orientation="1,0"
            position="510.91,656.042"
        >
        </sodipodi:guide>

        <sodipodi:guide
            id="guide50"
            inkscape:color="rgb(167,0,255)"
            inkscape:label=""
            inkscape:locked="false"
            orientation="0.783405,-0.621512"
            position="512.762,362.354"
        >
        </sodipodi:guide>

        <sodipodi:guide
            id="guide51"
            inkscape:color="rgb(167,0,255)"
            inkscape:label="Пересечение 1"
            inkscape:locked="false"
            orientation="0.783405,-0.621512"
            position="512.746,365.025"
        >
        </sodipodi:guide>

        <sodipodi:guide
            id="guide52"
            inkscape:color="rgb(167,0,255)"
            inkscape:label="Пересечение 2"
            inkscape:locked="false"
            orientation="0.783405,-0.621512"
            position="510.963,647.773"
        >
        </sodipodi:guide>

        <sodipodi:guide
            id="guide53"
            inkscape:color="rgb(167,0,255)"
            inkscape:label="Пересечение 3"
            inkscape:locked="false"
            orientation="0.783405,-0.621512"
            position="510.91,656.042"
        >
        </sodipodi:guide>

        <sodipodi:guide
            id="guide54"
            inkscape:color="rgb(167,0,255)"
            inkscape:label="Мера"
            inkscape:locked="false"
            orientation="-0.99998,-0.00630618"
            position="512.762,362.354"
        >
        </sodipodi:guide>

        <sodipodi:guide
            id="guide55"
            inkscape:color="rgb(167,0,255)"
            inkscape:label="Базовый"
            inkscape:locked="false"
            orientation="-0.779337,-0.626605"
            position="512.762,362.354"
        >
        </sodipodi:guide>

        <sodipodi:guide
            id="guide56"
            inkscape:color="rgb(167,0,255)"
            inkscape:label=""
            inkscape:locked="false"
            orientation="-0,1"
            position="512.762,362.354"
        >
        </sodipodi:guide>

        <sodipodi:guide
            id="guide57"
            inkscape:color="rgb(167,0,255)"
            inkscape:label="Начало"
            inkscape:locked="false"
            orientation="1,0"
            position="512.762,362.354"
        >
        </sodipodi:guide>

        <sodipodi:guide
            id="guide58"
            inkscape:color="rgb(167,0,255)"
            inkscape:label="Конец"
            inkscape:locked="false"
            orientation="-0,1"
            position="510.91,656.042"
        >
        </sodipodi:guide>

        <sodipodi:guide
            id="guide59"
            inkscape:color="rgb(167,0,255)"
            inkscape:label=""
            inkscape:locked="false"
            orientation="1,0"
            position="510.91,656.042"
        >
        </sodipodi:guide>

        <sodipodi:guide
            id="guide60"
            inkscape:color="rgb(167,0,255)"
            inkscape:label=""
            inkscape:locked="false"
            orientation="0.783273,-0.621678"
            position="512.762,362.354"
        >
        </sodipodi:guide>

        <sodipodi:guide
            id="guide61"
            inkscape:color="rgb(167,0,255)"
            inkscape:label="Пересечение 1"
            inkscape:locked="false"
            orientation="0.783273,-0.621678"
            position="512.746,365.025"
        >
        </sodipodi:guide>

        <sodipodi:guide
            id="guide62"
            inkscape:color="rgb(167,0,255)"
            inkscape:label="Пересечение 2"
            inkscape:locked="false"
            orientation="0.783273,-0.621678"
            position="510.963,647.773"
        >
        </sodipodi:guide>

        <sodipodi:guide
            id="guide63"
            inkscape:color="rgb(167,0,255)"
            inkscape:label="Пересечение 3"
            inkscape:locked="false"
            orientation="0.783273,-0.621678"
            position="510.91,656.042"
        >
        </sodipodi:guide>
    </sodipodi:namedview>
    <defs>
        <inkscape:path-effect
            apply_no_radius="true"
            apply_with_radius="true"
            chamfer_steps="1"
            effect="fillet_chamfer"
            flexible="false"
            hide_knots="false"
            id="path-effect64"
            is_visible="true"
            lpeversion="1"
            method="auto"
            mode="F"
            nodesatellites_param="F,0,0,1,0,32.646653,0,1 @ F,0,0,1,0,21.461018,0,1 @ F,0,0,1,0,27.577871,0,1 @ F,0,0,1,0,24.428438,0,1 @ F,0,0,1,0,27.05587,0,1 @ F,0,0,1,0,28.051201,0,1"
            only_selected="false"
            radius="0"
            unit="px"
            use_knot_distance="true"
        >
        </inkscape:path-effect>

        <inkscape:path-effect
            apply_no_radius="true"
            apply_with_radius="true"
            chamfer_steps="1"
            effect="fillet_chamfer"
            flexible="false"
            hide_knots="false"
            id="path-effect63"
            is_visible="true"
            lpeversion="1"
            method="auto"
            mode="F"
            nodesatellites_param="F,0,0,1,0,0,0,1 @ F,0,0,1,0,0,0,1 @ F,0,0,1,0,0,0,1 @ F,0,0,1,0,0,0,1 @ F,0,0,1,0,0,0,1 @ F,0,0,1,0,0,0,1"
            only_selected="false"
            radius="0"
            unit="px"
            use_knot_distance="true"
        >
        </inkscape:path-effect>

        <inkscape:path-effect
            apply_no_weight="true"
            apply_with_weight="true"
            effect="bspline"
            helper_size="0"
            id="path-effect1"
            is_visible="true"
            lpeversion="1.3"
            only_selected="false"
            steps="2"
            uniform="false"
            weight="33.333333"
        >
        </inkscape:path-effect>

        <inkscape:path-effect
            apply_no_radius="true"
            apply_with_radius="true"
            chamfer_steps="1"
            effect="fillet_chamfer"
            flexible="false"
            hide_knots="false"
            id="path-effect64-4"
            is_visible="true"
            lpeversion="1"
            method="auto"
            mode="F"
            nodesatellites_param="F,0,0,1,0,32.646653,0,1 @ F,0,0,1,0,21.461018,0,1 @ F,0,0,1,0,27.577871,0,1 @ F,0,0,1,0,24.428438,0,1 @ F,0,0,1,0,27.05587,0,1 @ F,0,0,1,0,28.051201,0,1"
            only_selected="false"
            radius="0"
            unit="px"
            use_knot_distance="true"
        >
        </inkscape:path-effect>

        <inkscape:path-effect
            apply_no_radius="true"
            apply_with_radius="true"
            chamfer_steps="1"
            effect="fillet_chamfer"
            flexible="false"
            hide_knots="false"
            id="path-effect64-8"
            is_visible="true"
            lpeversion="1"
            method="auto"
            mode="F"
            nodesatellites_param="F,0,0,1,0,32.646653,0,1 @ F,0,0,1,0,21.461018,0,1 @ F,0,0,1,0,27.577871,0,1 @ F,0,0,1,0,24.428438,0,1 @ F,0,0,1,0,27.05587,0,1 @ F,0,0,1,0,28.051201,0,1"
            only_selected="false"
            radius="0"
            unit="px"
            use_knot_distance="true"
        >
        </inkscape:path-effect>

        <inkscape:path-effect
            apply_no_radius="true"
            apply_with_radius="true"
            chamfer_steps="1"
            effect="fillet_chamfer"
            flexible="false"
            hide_knots="false"
            id="path-effect64-4-1"
            is_visible="true"
            lpeversion="1"
            method="auto"
            mode="F"
            nodesatellites_param="F,0,0,1,0,32.646653,0,1 @ F,0,0,1,0,21.461018,0,1 @ F,0,0,1,0,27.577871,0,1 @ F,0,0,1,0,24.428438,0,1 @ F,0,0,1,0,27.05587,0,1 @ F,0,0,1,0,28.051201,0,1"
            only_selected="false"
            radius="0"
            unit="px"
            use_knot_distance="true"
        >
        </inkscape:path-effect>

        <inkscape:path-effect
            apply_no_radius="true"
            apply_with_radius="true"
            chamfer_steps="1"
            effect="fillet_chamfer"
            flexible="false"
            hide_knots="false"
            id="path-effect64-41"
            is_visible="true"
            lpeversion="1"
            method="auto"
            mode="F"
            nodesatellites_param="F,0,0,1,0,32.646653,0,1 @ F,0,0,1,0,21.461018,0,1 @ F,0,0,1,0,27.577871,0,1 @ F,0,0,1,0,24.428438,0,1 @ F,0,0,1,0,27.05587,0,1 @ F,0,0,1,0,28.051201,0,1"
            only_selected="false"
            radius="0"
            unit="px"
            use_knot_distance="true"
        >
        </inkscape:path-effect>

        <inkscape:path-effect
            apply_no_radius="true"
            apply_with_radius="true"
            chamfer_steps="1"
            effect="fillet_chamfer"
            flexible="false"
            hide_knots="false"
            id="path-effect64-2"
            is_visible="true"
            lpeversion="1"
            method="auto"
            mode="F"
            nodesatellites_param="F,0,0,1,0,32.646653,0,1 @ F,0,0,1,0,21.461018,0,1 @ F,0,0,1,0,27.577871,0,1 @ F,0,0,1,0,24.428438,0,1 @ F,0,0,1,0,27.05587,0,1 @ F,0,0,1,0,28.051201,0,1"
            only_selected="false"
            radius="0"
            unit="px"
            use_knot_distance="true"
        >
        </inkscape:path-effect>

        <inkscape:path-effect
            apply_no_radius="true"
            apply_with_radius="true"
            chamfer_steps="1"
            effect="fillet_chamfer"
            flexible="false"
            hide_knots="false"
            id="path-effect64-41-6"
            is_visible="true"
            lpeversion="1"
            method="auto"
            mode="F"
            nodesatellites_param="F,0,0,1,0,32.646653,0,1 @ F,0,0,1,0,21.461018,0,1 @ F,0,0,1,0,27.577871,0,1 @ F,0,0,1,0,24.428438,0,1 @ F,0,0,1,0,27.05587,0,1 @ F,0,0,1,0,28.051201,0,1"
            only_selected="false"
            radius="0"
            unit="px"
            use_knot_distance="true"
        >
        </inkscape:path-effect>

        <inkscape:path-effect
            apply_no_radius="true"
            apply_with_radius="true"
            chamfer_steps="1"
            effect="fillet_chamfer"
            flexible="false"
            hide_knots="false"
            id="path-effect64-7"
            is_visible="true"
            lpeversion="1"
            method="auto"
            mode="F"
            nodesatellites_param="F,0,0,1,0,32.646653,0,1 @ F,0,0,1,0,21.461018,0,1 @ F,0,0,1,0,27.577871,0,1 @ F,0,0,1,0,24.428438,0,1 @ F,0,0,1,0,27.05587,0,1 @ F,0,0,1,0,28.051201,0,1"
            only_selected="false"
            radius="0"
            unit="px"
            use_knot_distance="true"
        >
        </inkscape:path-effect>

        <inkscape:path-effect
            apply_no_radius="true"
            apply_with_radius="true"
            chamfer_steps="1"
            effect="fillet_chamfer"
            flexible="false"
            hide_knots="false"
            id="path-effect64-0"
            is_visible="true"
            lpeversion="1"
            method="auto"
            mode="F"
            nodesatellites_param="F,0,0,1,0,32.646653,0,1 @ F,0,0,1,0,21.461018,0,1 @ F,0,0,1,0,27.577871,0,1 @ F,0,0,1,0,24.428438,0,1 @ F,0,0,1,0,27.05587,0,1 @ F,0,0,1,0,28.051201,0,1"
            only_selected="false"
            radius="0"
            unit="px"
            use_knot_distance="true"
        >
        </inkscape:path-effect>

        <inkscape:path-effect
            apply_no_radius="true"
            apply_with_radius="true"
            chamfer_steps="1"
            effect="fillet_chamfer"
            flexible="false"
            hide_knots="false"
            id="path-effect64-6"
            is_visible="true"
            lpeversion="1"
            method="auto"
            mode="F"
            nodesatellites_param="F,0,0,1,0,32.646653,0,1 @ F,0,0,1,0,21.461018,0,1 @ F,0,0,1,0,27.577871,0,1 @ F,0,0,1,0,24.428438,0,1 @ F,0,0,1,0,27.05587,0,1 @ F,0,0,1,0,28.051201,0,1"
            only_selected="false"
            radius="0"
            unit="px"
            use_knot_distance="true"
        >
        </inkscape:path-effect>

        <inkscape:path-effect
            apply_no_radius="true"
            apply_with_radius="true"
            chamfer_steps="1"
            effect="fillet_chamfer"
            flexible="false"
            hide_knots="false"
            id="path-effect64-410"
            is_visible="true"
            lpeversion="1"
            method="auto"
            mode="F"
            nodesatellites_param="F,0,0,1,0,32.646653,0,1 @ F,0,0,1,0,21.461018,0,1 @ F,0,0,1,0,27.577871,0,1 @ F,0,0,1,0,24.428438,0,1 @ F,0,0,1,0,27.05587,0,1 @ F,0,0,1,0,28.051201,0,1"
            only_selected="false"
            radius="0"
            unit="px"
            use_knot_distance="true"
        >
        </inkscape:path-effect>

        <inkscape:path-effect
            apply_no_radius="true"
            apply_with_radius="true"
            chamfer_steps="1"
            effect="fillet_chamfer"
            flexible="false"
            hide_knots="false"
            id="path-effect64-9"
            is_visible="true"
            lpeversion="1"
            method="auto"
            mode="F"
            nodesatellites_param="F,0,0,1,0,32.646653,0,1 @ F,0,0,1,0,21.461018,0,1 @ F,0,0,1,0,27.577871,0,1 @ F,0,0,1,0,24.428438,0,1 @ F,0,0,1,0,27.05587,0,1 @ F,0,0,1,0,28.051201,0,1"
            only_selected="false"
            radius="0"
            unit="px"
            use_knot_distance="true"
        >
        </inkscape:path-effect>

        <inkscape:path-effect
            apply_no_radius="true"
            apply_with_radius="true"
            chamfer_steps="1"
            effect="fillet_chamfer"
            flexible="false"
            hide_knots="false"
            id="path-effect64-5"
            is_visible="true"
            lpeversion="1"
            method="auto"
            mode="F"
            nodesatellites_param="F,0,0,1,0,32.646653,0,1 @ F,0,0,1,0,21.461018,0,1 @ F,0,0,1,0,27.577871,0,1 @ F,0,0,1,0,24.428438,0,1 @ F,0,0,1,0,27.05587,0,1 @ F,0,0,1,0,28.051201,0,1"
            only_selected="false"
            radius="0"
            unit="px"
            use_knot_distance="true"
        >
        </inkscape:path-effect>

        <inkscape:path-effect
            apply_no_radius="true"
            apply_with_radius="true"
            chamfer_steps="1"
            effect="fillet_chamfer"
            flexible="false"
            hide_knots="false"
            id="path-effect64-44"
            is_visible="true"
            lpeversion="1"
            method="auto"
            mode="F"
            nodesatellites_param="F,0,0,1,0,32.646653,0,1 @ F,0,0,1,0,21.461018,0,1 @ F,0,0,1,0,27.577871,0,1 @ F,0,0,1,0,24.428438,0,1 @ F,0,0,1,0,27.05587,0,1 @ F,0,0,1,0,28.051201,0,1"
            only_selected="false"
            radius="0"
            unit="px"
            use_knot_distance="true"
        >
        </inkscape:path-effect>

        <inkscape:path-effect
            apply_no_radius="true"
            apply_with_radius="true"
            chamfer_steps="1"
            effect="fillet_chamfer"
            flexible="false"
            hide_knots="false"
            id="path-effect64-48"
            is_visible="true"
            lpeversion="1"
            method="auto"
            mode="F"
            nodesatellites_param="F,0,0,1,0,32.646653,0,1 @ F,0,0,1,0,21.461018,0,1 @ F,0,0,1,0,27.577871,0,1 @ F,0,0,1,0,24.428438,0,1 @ F,0,0,1,0,27.05587,0,1 @ F,0,0,1,0,28.051201,0,1"
            only_selected="false"
            radius="0"
            unit="px"
            use_knot_distance="true"
        >
        </inkscape:path-effect>
    </defs>
    <g id="layer1" inkscape:groupmode="layer" inkscape:label="РЎР»РѕР№ 1">
        <path
            id="path1"
            class="st0"
            d="M103.8,800.6c-33.6-9.2-57.5-17.3-58.9-20c-1.3-2.4-5.9-23.3-10.3-46.4
		C6.4,584.9,8.9,477.3,42.4,402.3c7.1-16,10.5-20.4,14.1-19.1c5.4,2,113.8,64,119.3,68.1c2.6,1.9,1.1,7.8-5.3,22.1
		c-32.1,70.8-32.6,201.1-1.1,336.5C171.5,819.1,170.4,819,103.8,800.6L103.8,800.6z"
        />
        <path
            id="path2"
            class="st0"
            d="M252.6,487.4c-33.4-19.4-60.7-36.2-60.8-37.5c0-3.2,13.9-22,31.5-42.3
		c43.4-50.2,137.2-111.3,235.2-153.3l23.4-10l47.5,47.6c26.1,26.2,46.9,48.1,46.2,48.6c-0.7,0.6-10.8,4.9-22.4,9.7
		c-36.9,15.3-89,43.2-123.9,66.4c-36.9,24.6-84,67.4-100,91c-5.6,8.2-11.5,14.9-13.1,14.9S286,506.8,252.6,487.4z"
        />
        <path
            id="path5"
            class="st0"
            d="M637.1,390.6c-26.1-26.2-46.9-48.2-46.2-48.9c2.3-2.2,69-25.4,99.5-34.8
		c71.6-21.9,180.1-45.6,185.1-40.5c1.5,1.5,15.6,25,31.3,52.2l28.6,49.4l-33.6,6.6c-65,12.7-164.7,41-204.7,58.2l-12.5,5.4
		L637.1,390.6z"
        />
        <path
            id="path6"
            class="st0"
            d="M976.7,426.5c-21.1-36.7-28.5-52.1-25.9-53.7c2-1.3,10.6-3.1,19.1-4.1
		c45.8-5.4,136.9-13.9,167.5-15.7l35-2.1l3.2,11.6c1.7,6.4,8.3,30.6,14.6,53.8l11.4,42.2l-51.1,3.6c-49.2,3.5-121,10.9-136.6,14.1
		C1006.8,477.8,1004.2,474.3,976.7,426.5z"
        />
        <path
            id="path7"
            class="st0"
            d="M1235.4,560.5c-1.9-6.8-8.4-31.3-14.6-54.6l-11.2-42.3l49.6-2c27.3-1.1,66.9-2,88.1-2h38.5v53.7
		v53.7l-42.8,1.8c-23.5,1-56.6,2.3-73.5,2.9l-30.8,1.1L1235.4,560.5z"
        />
        <path
            id="path8"
            class="st0"
            d="M1391.8,628.9V573l72.7,2.2c40,1.2,73.2,2.6,73.7,3.1c0.5,0.5-5.4,24.6-13.2,53.7l-14.1,52.8h-59.6
		h-59.6V628.9z"
        />
        <path
            id="path9"
            class="st0"
            d="M1544.8,804.6c-10.7-1.2-27.9-2.3-38.2-2.5c-11.4-0.2-18.8-1.6-18.8-3.7c0-2.7,19.7-78.6,25.9-99.4
		c1.3-4.3,5-5.2,20.1-5.2c21.7,0.1,103.8,7.7,105.9,9.8c0.8,0.8-11.8,24.5-28,52.7C1578.6,814,1585.3,809.2,1544.8,804.6
		L1544.8,804.6z"
        />
        <path
            id="path10"
            class="st0"
            d="M1576.3,934.8c-6.6-2.5-21-6.8-31.9-9.5l-19.9-5l30.4-52.6l30.4-52.6l15,2.2
		c16.9,2.5,62.3,15.2,78.8,22.1l10.9,4.6l-47.8,47.9c-26.3,26.3-49.2,47.8-50.9,47.7C1589.7,939.4,1582.9,937.3,1576.3,934.8
		L1576.3,934.8z"
        />
        <path
            id="path11"
            class="st0"
            d="M371.9,872.4l-58.5-15.8l-3.4-11.8c-5.6-19.2-15.8-83.9-19.4-122.6
		c-6.2-66.1,1.8-133.8,20.1-170.3c4.3-8.7,8.3-16.1,8.7-16.6c0.4-0.5,29.2,15.5,63.9,35.5l63.1,36.4l-7.3,16.6
		c-22.2,50.3-24.8,134.2-6.9,227.4c6.8,35.5,6.9,37.6,2,37.2C432,888.3,404,881.1,371.9,872.4z"
        />
        <path
            id="path12"
            class="st0"
            d="M519.5,641.4l-63.9-37l18.3-22.8c36.4-45.2,104.5-91.5,186.2-126.5l22.8-9.8l47.1,47.2l47.1,47.2
		l-45.9,22.7c-25.3,12.5-57.6,31.1-71.9,41.2c-24.2,17.3-56.6,48.1-70.2,66.7l-5.9,8.1L519.5,641.4z"
        />
        <path
            id="path13"
            class="st0"
            d="M838.1,591.5c-26.1-26.1-46.8-48.1-46.1-48.9c3.5-3.5,83.8-29.2,121.3-38.8
		c59.5-15.2,87.8-20.1,90.9-15.9c5.8,7.6,58.3,101.1,57.2,101.9c-0.6,0.5-13.7,3.2-29.1,6c-32.1,6-101.5,25.4-128.5,36l-18.4,7.2
		L838.1,591.5z"
        />
        <path
            id="path14"
            class="st0"
            d="M1104.5,648c-19.4-33.5-28.8-52.4-26.6-53.6c3.8-2.1,83.1-10.4,127.9-13.4l28.5-1.9l13.2,50.6
		c7.2,27.8,13.7,52.1,14.4,54c0.8,2.2-8.1,4-26.7,5.4c-36.9,2.7-86.3,7.5-94.4,9.3C1135.2,699.5,1130.6,693.1,1104.5,648L1104.5,648
		z"
        />
        <path
            id="path15"
            class="st0"
            d="M1285.6,748.1c-7.7-28.7-13.1-53-12.1-54c1-1,26.7-2.3,57.1-2.8l55.3-0.9v54v54l-43.1,0.9
		l-43.1,0.9L1285.6,748.1z"
        />
        <path
            id="path16"
            class="st0"
            d="M1418.1,913.5l-26.2-1v-53.9v-53.9h43.7c40.2,0,43.6,0.4,42.1,5.2c-0.9,2.9-5.8,20.8-10.9,39.8
		c-16.1,59.8-18.1,66-20.3,65.4C1445.3,914.8,1432.5,914,1418.1,913.5L1418.1,913.5z"
        />
        <path
            id="path17"
            class="st0"
            d="M436,189.5c-26.1-26.1-46.8-48-46.1-48.7c3.6-3.1,92.3-33.7,135.6-46.8
		C606.2,69.7,735.4,40,744.8,43.6c3.7,1.4,63.2,101,61.3,102.7c-0.4,0.4-16.3,3.7-35.3,7.3C694.7,168,574,202,506.4,228.1l-22.9,8.8
		L436,189.5z"
        />
        <path
            id="path18"
            class="st0"
            d="M848,204.2c-16.1-28.2-28.8-51.8-28.2-52.4c4.6-4.6,240.1-28,281.3-28h10.8l14.1,52.9
		c7.8,29.1,13.7,53.2,13.2,53.6c-0.5,0.4-31.9,3-69.9,5.9c-38,2.8-96.5,8.4-130.2,12.4s-61.3,7.2-61.5,7.1
		C877.5,255.6,864.1,232.4,848,204.2L848,204.2z"
        />
        <path
            id="path19"
            class="st0"
            d="M1177.3,342.3c-4.8-12.8-27.9-103.1-26.7-104.4c1.8-1.8,71.4-5,164-7.6l71.2-2v55.2v55.2
		l-98.6,1.9c-54.2,1.1-100.8,2.8-103.5,3.8C1180.9,345.6,1178.2,344.6,1177.3,342.3z"
        />
        <path
            id="path20"
            class="st0"
            d="M1463.1,454.5l-71.2-0.9v-53.9v-53.9l86.2,0.4c47.4,0.2,94.5,1.2,104.5,2.2l18.2,1.9l-11.3,42
		c-6.2,23.1-12.8,47.1-14.6,53.2l-3.3,11.2l-18.6-0.7C1542.7,455.7,1502.3,455,1463.1,454.5L1463.1,454.5z"
        />
        <path
            id="path21"
            class="st0"
            d="M1666.3,581.1c-19.8-2.1-54.6-4.9-77.2-6.1c-22.7-1.2-41.2-3-41.1-4s6.6-25.4,14.5-54.3l14.4-52.5
		l28.3,0.9c27.1,0.8,119.5,7.9,151.6,11.6l15.3,1.8l-30.6,52.9c-16.8,29.1-32.5,53.1-34.8,53.3
		C1704.2,584.8,1686.1,583.2,1666.3,581.1L1666.3,581.1z"
        />
        <path
            id="path22"
            class="st0"
            d="M1772.8,727.9c-24.3-9.4-96.2-28.1-108.1-28.1c-4.9,0-8.9-1.5-8.9-3.4s13.2-26.2,29.2-54.1
		l29.2-50.7l12,1.9c47.6,7.5,119.9,27,156,42.1l11.4,4.8l-47.7,47.8c-26.2,26.3-49.1,47.7-50.7,47.6
		C1793.7,735.5,1783.5,732,1772.8,727.9L1772.8,727.9z"
        />
        <path
            id="path23"
            class="st0"
            d="M1771.2,887.6c-14.5-14.7-28.3-25.1-44.2-33.3c-12.7-6.6-23.2-12.7-23.2-13.5
		c0-0.8,21.3-22.8,47.3-48.8l47.3-47.2l22.1,10.6c12.1,5.8,31.4,16.8,42.8,24.5c21.7,14.6,57.6,50.3,55.8,55.6
		c-1,3-122.3,74.5-125.3,73.9C1793,909.1,1782.8,899.3,1771.2,887.6L1771.2,887.6z"
        />
        <path
            id="path24"
            class="st0"
            d="M1667,1041c-0.9-15.3-3.2-31.6-5-36.4c-1.8-4.8-3-8.9-2.5-9.2c15.6-10.2,129.3-73.7,130.3-72.7
		c7.4,7.4,15.5,74.5,11.9,98.6l-2,13.5l-63.8,17c-35.1,9.4-64.6,17-65.5,17C1669.4,1068.7,1667.9,1056.2,1667,1041L1667,1041z"
        />
        <path
            id="path25"
            class="st0"
            d="M1102.8,65.7c-7.7-28.6-13.9-53.4-13.9-55.1c0-3.9,54.1-6.4,189.8-8.9l107.2-2v54.5v54.5l-33.8,0
		c-43.5,0-203.6,5.4-221.6,7.5l-13.8,1.6L1102.8,65.7z"
        />
        <path
            id="path26"
            class="st0"
            d="M1532.8,225.6c-37.1-1.1-84-2.2-104.2-2.5l-36.8-0.4v-54v-54l69.7,0.2c75.1,0.2,196.4,4,198.6,6.2
		c0.7,0.7-5,25.3-12.8,54.5l-14.1,53.1l-16.5-0.5C1607.7,227.9,1569.9,226.7,1532.8,225.6L1532.8,225.6z"
        />
        <path
            id="path27"
            class="st0"
            d="M1802.8,357.6c-10.7-1.3-48.5-4.5-84-7.2c-35.5-2.7-74.3-5.6-86.2-6.5c-13.6-1.1-21.7-3-21.7-5.2
		c0.1-4.8,26.3-101.4,28-103.1c2.9-2.9,220.5,13.6,250.3,19c5.4,1,9.5,2.8,9,4.1c-0.5,1.3-13.7,24.7-29.4,52.1
		C1836.7,366.9,1843.1,362.4,1802.8,357.6L1802.8,357.6z"
        />
        <path
            id="path28"
            class="st0"
            d="M1988.8,526.9c-39.1-17.1-112.5-37.7-168.3-47.3l-37.8-6.5l30.3-52.4c27.4-47.4,31-52.3,37.8-51.6
		c28.3,3,89.3,15.3,126,25.3c38,10.4,116,36.6,119.9,40.3c1.4,1.4-93.2,97.2-95.8,97C2000,531.6,1994.6,529.4,1988.8,526.9z"
        />
        <path
            id="path29"
            class="st0"
            d="M2052.3,741c-20.4-29.6-66.4-64.2-119.7-90.2l-27.2-13.3l48.5-48.4c26.7-26.6,49.5-48.4,50.8-48.4
		c5.5,0,77.7,38,101.1,53.2c26,16.9,72.5,61,81.5,77.3l5,9l-63.8,36.7c-35.1,20.2-64.6,36.7-65.6,36.7
		C2061.9,753.7,2057.2,748,2052.3,741L2052.3,741z"
        />
        <path
            id="path30"
            class="st0"
            d="M1947.8,969.6c2.4-30.9-2.4-81.3-10-105.5c-3.3-10.4-5.9-20.4-5.9-22.3
		c0-2.8,122.6-76.1,127.3-76.1c3,0,16.2,47.5,19.2,69c3.5,24.9,5.1,63.8,4.1,100.5l-0.7,24l-65.2,17.3
		c-35.9,9.5-66.5,17.3-67.9,17.2C1947.1,993.8,1946.7,983.2,1947.8,969.6L1947.8,969.6z"
        />
        <path
            id="path31"
            class="st0"
            d="M1784.6,1130.7c6.2-14.5,16.9-56.1,19.8-77.4l1.9-13.9l64.3-17.3c35.4-9.5,65.2-16.4,66.2-15.4
		c5.2,5.2-11.6,79.5-26.9,119.7l-6.6,17.2h-62.2H1779L1784.6,1130.7z"
        />
        <path
            id="path32"
            class="st0"
            d="M1669.7,1220.2c-26.2-7.2-48.2-13.7-48.8-14.4c-0.7-0.7,4.5-13.5,11.6-28.5l12.8-27.3l62.3-0.1
		l62.3-0.1l-4.1,9.8c-2.3,5.4-11.4,24.3-20.2,42c-12.7,25.4-17.4,32.2-22.2,32C1720,1233.4,1695.9,1227.4,1669.7,1220.2
		L1669.7,1220.2z"
        />
        <path
            id="path33"
            class="st0"
            d="M1940.8,135.5c-37.3-4.9-116-11.6-192-16.5c-42.1-2.7-76.9-5.2-77.3-5.6s5.6-24.8,13.5-54.1
		l14.3-53.3l45,2c53.6,2.4,175,11.8,235.1,18.2c23.7,2.5,44.9,4.6,47.1,4.6c5.3,0-56.2,106.4-61.8,106.9
		C1962.3,137.9,1951.5,136.9,1940.8,135.5z"
        />
        <path
            id="path34"
            class="st0"
            d="M2162.8,312.6c-65.9-25.3-159.8-49.8-219.8-57.4c-16.1-2-29.2-5-29.2-6.5s13.2-25.6,29.2-53.5
		l29.2-50.6l13.5,1.8c68.7,9.3,144.2,25.8,205,44.9c27.4,8.6,107.8,37.4,109.9,39.4c2,1.9-93.8,97.1-97.3,96.7
		C2201.7,327.2,2183.4,320.5,2162.8,312.6L2162.8,312.6z"
        />
        <path
            id="path35"
            class="st0"
            d="M2323.4,583.5c-14.9-23.9-54.6-60.9-91.6-85.5c-31.5-20.9-109.1-62.3-116.8-62.3
		c-1.8,0-3.2-1-3.2-2.3s21.4-23.6,47.5-49.7l47.5-47.4l34.2,15.4c69.4,31.2,140.6,78.1,178.7,117.4c16.2,16.8,44.4,53.5,42.3,55.2
		c-2.5,2-122.7,70.7-125.9,71.9C2333.9,597.2,2328.6,591.9,2323.4,583.5L2323.4,583.5z"
        />
        <path
            id="path36"
            class="st0"
            d="M2230.2,853.6c-0.1-73.1-4-102.5-19.1-145.2c-4.9-13.8-8-26-6.8-27c1.1-1,29.7-17.7,63.4-37.1
		c70-40.3,63.6-40.1,76.1-2.3c17.3,52.4,24.8,117.7,21.7,186.7c-1.1,23.9-2.6,46.3-3.4,49.6c-1.4,6-13.8,9.9-125.7,39.1
		C2230.5,919,2230.3,917.3,2230.2,853.6L2230.2,853.6z"
        />
        <path
            id="path37"
            class="st0"
            d="M2049.4,1122c11.7-28.6,28-92.4,32.8-128.7l3.9-29l40.6-10.7c22.4-5.9,52.6-14.1,67.3-18.1
		l26.7-7.4l-1.9,18.1c-5.2,49.4-25.6,130.2-44.5,175.8l-9,21.8h-62.4h-62.4L2049.4,1122z"
        />
        <path
            id="path38"
            class="st0"
            d="M1901.8,1282.6c-27.2-7.4-49.7-13.7-50-13.9c-0.3-0.3,6.5-14.6,15.1-31.9
		c8.6-17.3,21.3-44,28.2-59.2l12.6-27.8h61.5h61.5l-3,8.2c-1.7,4.5-17.4,37.6-35,73.5c-22.2,45.4-33.3,65.1-36.6,64.9
		C1953.4,1296.2,1929,1290,1901.8,1282.6L1901.8,1282.6z"
        />
        <path
            id="path39"
            class="st0"
            d="M1737.7,1345.4c-25.1-14.4-45.7-27-45.8-28c-0.1-1.3,26.6-50.2,40.1-73.6
		c0.8-1.3,102.7,26.9,105,29.1c2.5,2.4-39,81.2-49.2,93.4C1783.6,1371.3,1780.7,1370.1,1737.7,1345.4L1737.7,1345.4z"
        />
        <path
            id="path40"
            class="st0"
            d="M1596.9,1350l-39.4-39.7l11.8-18c6.5-9.9,12.9-19.9,14.3-22.3c3.7-6.1,97.1,47.1,94.6,53.8
		c-1.6,4.4-40.3,66-41.4,66C1636.5,1389.7,1618.5,1371.8,1596.9,1350z"
        />
        <path
            id="path41"
            class="st0"
            d="M2590.5,423.1c-24.7-38.8-71.8-81.4-133.9-121c-29.9-19.1-130-70.4-137.3-70.4
		c-1.9,0-3.5-1-3.5-2.3s21.5-23.8,47.9-50.1l47.9-47.8l26.4,11.3c62.5,26.9,137.3,69.3,185.9,105.6c31.6,23.6,77.4,69.8,95.3,96.4
		c8.1,12,14.1,22.3,13.4,22.9c-2.6,2.4-121.6,70.6-125.9,72.2C2603.8,441.1,2598.5,435.6,2590.5,423.1z"
        />
        <path
            id="path42"
            class="st0"
            d="M2509.6,826.8c4.2-32,2.5-135.2-2.8-172c-5.6-39.1-16.1-80.7-27.3-108.3
		c-4.2-10.4-6.6-19.7-5.4-20.8c8-6.8,124.8-71.6,126.8-70.4c4.2,2.6,21.1,48.9,28.5,78c12.7,50.1,17.5,98.7,17.1,175.5
		c-0.2,38.8-1.4,77.2-2.8,85.5l-2.4,15l-58.5,15.7c-32.2,8.6-62.3,16.5-67,17.6l-8.5,1.9L2509.6,826.8z"
        />
        <path
            id="path43"
            class="st0"
            d="M2305.3,1138.5c29.5-71.7,52-158.2,60-231c2-18.4,2.2-18.8,13-21.6
		c46.2-12.1,116.6-30.7,119.4-31.7c4-1.3,3.3,7-5.3,59.9c-11.8,73.4-30.7,142.9-54.8,202.5l-10.3,25.5l-62.1,0.8
		C2306.8,1143.8,2303.3,1143.5,2305.3,1138.5L2305.3,1138.5z"
        />
        <path
            id="path44"
            class="st0"
            d="M2137.3,1345.5c-28.1-7.6-51.4-14.1-52-14.5c-0.5-0.4,13.8-30.9,31.8-67.8
		c18-36.9,37.3-77.5,42.8-90.3l10-23.2h61c33.5,0,61,0.9,61,1.9c0,8.8-97.2,208.3-101.3,207.8
		C2189.3,1359.4,2165.4,1353.1,2137.3,1345.5L2137.3,1345.5z"
        />
        <path
            id="path45"
            class="st0"
            d="M1940.8,1462.8c-23.9-14-44.6-26.6-46-27.9c-1.4-1.3,8.2-21.1,21.2-44
		c13.1-22.9,28.9-51,35.2-62.6c6.3-11.6,11.8-21.4,12.2-22c0.7-0.9,106.6,26.7,109,28.4c2.2,1.6-83.8,154.3-86.6,153.9
		C1985,1488.4,1964.7,1476.8,1940.8,1462.8L1940.8,1462.8z"
        />
        <path
            id="path46"
            class="st0"
            d="M1766.1,1519.5c-21-21.1-38.2-39.3-38.2-40.5c0-3.4,57.1-93.7,60-94.7c1.4-0.5,23,10.8,48,25.1
		c31,17.8,44.9,27.3,43.8,30.1c-2.3,6.1-63.6,104.1-69.9,111.8l-5.4,6.6L1766.1,1519.5z"
        />
        <path
            id="path47"
            class="st0"
            d="M1634.2,1564.9c-23.4-39.1-48.3-83.7-48.3-86.6c0-1.7,11.9-19.7,26.5-40l26.5-37l38.5,38.4
		c21.2,21.1,38.5,39.6,38.5,41.1c0,2.3-50.5,75.1-65.6,94.6l-5.5,7.1L1634.2,1564.9z"
        />
        <path
            id="path48"
            class="st0"
            d="M1497.4,1539c-1.5-5.4-9.1-34.1-17-63.9l-14.3-54.2l24.5-24.1l24.5-24.1l15.9,27.2
		c8.8,15,22.3,38.3,30.1,51.9l14.2,24.7l-6.2,8.7c-7.5,10.6-62.9,63.4-66.4,63.4C1501.2,1548.7,1498.9,1544.3,1497.4,1539
		L1497.4,1539z"
        />
        <path
            id="path49"
            class="st0"
            d="M2567.6,1137c1.4-3.7,7.3-18.2,13-32.2c27.3-67.2,56.6-188.2,64.1-264.4c1.1-11,3-21.6,4.2-23.6
		c1.5-2.5,119.2-36.7,133.7-38.9c1-0.2-6.3,52.5-12.4,89.3c-13.9,83.8-35,161.3-63.7,233.9l-16.9,42.8h-62.3H2565L2567.6,1137z"
        />
        <path
            id="path50"
            class="st0"
            d="M2369.8,1407.7c-28.9-7.8-52.5-15.3-52.4-16.8s18.4-39.8,40.8-85.2c22.4-45.4,48-99,56.9-119.2
		l16.2-36.7l60.8,0c34.7,0,60.8,1.2,60.8,2.7c0,9.2-115.8,251.2-126.6,264.6C2422.7,1421.4,2417.4,1420.6,2369.8,1407.7
		L2369.8,1407.7z"
        />
        <path
            id="path51"
            class="st0"
            d="M2142.3,1578.8c-25.3-14.6-46.5-27.2-47.3-27.9c-0.7-0.7,4.9-12,12.7-25
		c18.6-31.3,67.3-118.6,77.2-138.2c4.3-8.5,9.2-16.4,10.9-17.4c2.7-1.7,104.3,23.7,107.5,26.9c1.7,1.7-106.2,197.4-114.6,207.6
		C2188.4,1605.1,2167.5,1593.4,2142.3,1578.8L2142.3,1578.8z"
        />
        <path
            id="path52"
            class="st0"
            d="M1933.6,1687l-38.7-38.8l21.1-32.5c11.6-17.9,32.8-51.4,47.1-74.5c14.3-23.1,26.4-42,26.9-42
		c0.5,0,21.9,12,47.6,26.7l46.6,26.7l-27.6,45.3c-37.4,61.3-80.3,127.8-82.6,127.8C1973.1,1725.7,1954.8,1708.3,1933.6,1687z"
        />
        <path
            id="path53"
            class="st0"
            d="M1743.1,1754l-30.4-52.5l31-42.6c17.1-23.4,38.2-53.3,46.9-66.2l15.9-23.6l40,39.9l40,39.9
		l-28.7,41.9c-28.7,42-65.1,92.4-77.7,107.6l-6.7,8.1L1743.1,1754z"
        />
        <path
            id="path54"
            class="st0"
            d="M1573.4,1821.2c-0.8-2.2-8.7-30.9-17.6-63.9l-16.2-60l7.9-7c4.4-3.9,19.4-16.9,33.5-28.9
		c14.1-12.1,33.6-31.5,43.4-43.2c9.8-11.7,18.5-21.3,19.4-21.2c1.4,0.1,56.6,94.8,59.6,102.1c1.8,4.5-46,57.9-73.5,82.2
		C1592,1814.3,1575.2,1826.3,1573.4,1821.2L1573.4,1821.2z"
        />
        <path
            id="path55"
            class="st0"
            d="M1391.8,1675v-71.7l15.8-2.1c19-2.6,45.5-12.9,69.4-27.2c9.7-5.8,18.7-9.5,19.9-8.2
		c1.2,1.3,8.4,26,16,54.9c7.6,28.9,15.1,56.8,16.6,62.1c2.7,9.5,2.4,9.8-15.8,21.3c-41.2,26-83.4,42.5-108.8,42.5h-13.2V1675z"
        />
        <path
            id="path56"
            class="st0"
            d="M1368,1592c-17-4.6-62.5-27.4-74.9-37.5l-7.2-5.9l12.6-47.2c6.9-25.9,14.7-54.3,17.1-63l4.5-15.8
		l9.2,6.6c11.8,8.4,40.8,20.4,49.6,20.5l6.8,0.1v73.5c0,40.4-0.3,73.4-0.8,73.3C1384.7,1596.4,1377,1594.4,1368,1592z"
        />
        <path
            id="path57"
            class="st0"
            d="M2344.3,1695.3c-24.8-14.4-46.1-26.7-47.5-27.2s8.6-19.8,22.1-42.9
		c13.5-23.1,43.5-76.4,66.6-118.4c23.1-42.1,42.2-76.7,42.4-76.8c0.5-0.6,107.6,28.6,108.5,29.6c1.8,1.8-132,241.1-143.8,257.4
		C2389.8,1720.8,2383.1,1717.8,2344.3,1695.3z"
        />
        <path
            id="path58"
            class="st0"
            d="M2101.8,1855.2l-38.4-38.5l32.7-50.8c18-27.9,46.6-73.4,63.5-101c17-27.6,31.7-49.8,32.7-49.2
		c1.1,0.6,22.4,12.8,47.5,27.2l45.6,26.1l-20.3,33.6c-50.5,83.5-119.7,191.1-122.9,191.1C2141.1,1893.7,2123,1876.4,2101.8,1855.2z"
        />
        <path
            id="path59"
            class="st0"
            d="M1886,2001c-14.1-24-40-69-43-74.6c-0.6-1,3.2-7.1,8.3-13.5c14.6-18.3,58.7-79.4,93.2-129.1
		l31.5-45.5l39.6,39.6l39.6,39.6l-33.9,49.4c-18.7,27.2-37.4,54.1-41.6,59.9c-4.2,5.7-22.9,31-41.4,56.2
		c-18.6,25.2-34.2,45.8-34.8,45.8C1902.6,2028.7,1894.9,2016.2,1886,2001L1886,2001z"
        />
        <path
            id="path60"
            class="st0"
            d="M1630.7,2035.9l-17.2-64.8l6.4-4.5c36.3-25.5,108.3-92.3,135.7-126.1
		c8.4-10.3,16.1-18.8,17.1-18.8c1,0,15.1,23,31.3,51.1l29.4,51.1l-12.9,17.2c-17.6,23.4-73.3,80.3-106.2,108.4
		c-26.5,22.7-62.9,51.2-65.2,51.2C1648.4,2100.7,1640.1,2071.6,1630.7,2035.9L1630.7,2035.9z"
        />
        <path
            id="path61"
            class="st0"
            d="M1391.8,1978.6v-72l20.2-2c11.1-1.1,28.3-4.1,38.2-6.7c21.5-5.6,76.7-31.8,102.4-48.5l18.4-11.9
		l16.9,63.6c9.3,35,16.9,64.6,16.9,65.8c0,4.3-51.7,35.7-84.7,51.5c-40.3,19.3-70.1,28.1-103.6,30.6l-24.8,1.8V1978.6z"
        />
        <path
            id="path62"
            class="st0"
            d="M1357.3,1892.3c-22.9-6.2-45.5-15.6-73.5-30.6c-26.2-14-69-42.3-69-45.5
		c0-4.8,31.3-119.3,33.2-121.5c1.2-1.4,10.5,3.1,20.6,9.9c26.7,18.2,70.4,38.4,95.5,44.3l21.8,5.1v71.4v71.4l-6.8-0.2
		C1375.4,1896.4,1365.6,1894.5,1357.3,1892.3L1357.3,1892.3z"
        />
        <path
            id="path63"
            class="st0"
            d="M1225,1663.5c-21.3-17.7-70.1-68.9-75.7-79.3c-3.7-6.9-2.1-10.6,23.7-55.2
		c15.2-26.3,27.9-48.1,28.2-48.5c0.3-0.4,17.7,16.2,38.6,36.8l38.1,37.6l-15.5,57.7c-8.5,31.7-16.4,59.5-17.6,61.7
		C1243.3,1677.2,1238.1,1674.4,1225,1663.5L1225,1663.5z"
        />
        <path
            id="path64"
            class="st0"
            d="M1177.3,1427.6c-12.3-18.8-22.4-35.3-22.4-36.8c0-3.5,71.4-74.7,73.1-72.9
		c0.7,0.7,8.2,11.7,16.6,24.3l15.3,23l-27.8,48.3c-15.3,26.5-28.8,48.3-30.1,48.3C1200.7,1461.7,1189.6,1446.4,1177.3,1427.6z"
        />
        <path
            id="path65"
            class="st0"
            d="M2001.5,2201.5l-30.4-52.9l35.3-47.2c47.1-63,66.4-90,105-147.1l32.5-48.1l39.8,39.9l39.8,39.9
		l-24.9,37.1c-44,65.7-125.8,179.4-163.5,227.2C2032.6,2253.5,2025,2242.4,2001.5,2201.5L2001.5,2201.5z"
        />
        <path
            id="path66"
            class="st0"
            d="M1718.7,2364.1c-1.9-7.1-9.4-34.8-16.6-61.6c-7.3-26.8-13.2-50.6-13.2-52.8s9.6-11.2,21.3-19.9
		c58.4-43.4,133.2-113.9,170.3-160.5c10.5-13.2,20-24.3,21-24.7c1.5-0.6,56.3,92.5,59.9,101.7c1.9,4.8-45.3,60.2-86.5,101.6
		c-38,38.2-86.3,80.3-127.5,111.3C1721.2,2378.7,1722.5,2378.5,1718.7,2364.1L1718.7,2364.1z"
        />
        <path
            id="path67"
            class="st0"
            d="M1395.6,2350.9c-2.8-1.3-3.8-18.9-3.8-73.1v-71.4l32.2-1.5c22.5-1.1,40.4-4,59.2-9.5
		c33.1-9.8,89.8-36.8,128.9-61.3c16.1-10.1,30.2-18.4,31.3-18.4c1.1,0,9.3,27.3,18.2,60.8c8.9,33.4,16.7,62.3,17.3,64.1
		c1.2,3.5-38.4,30.2-78.9,53c-34.4,19.4-84.3,40.1-117.3,48.7C1455.7,2349.3,1403.4,2354.5,1395.6,2350.9z"
        />
        <path
            id="path68"
            class="st0"
            d="M1362.6,2195c-29.6-6.5-62.7-18.7-96.9-35.6c-53-26.3-124.7-73.7-122-80.7
		c0.7-1.9,8.4-29.8,16.9-62c8.6-32.1,15.9-58.7,16.2-59s15.1,9.2,32.7,21.1c54.9,37,122.9,67.4,163.3,73l12.9,1.8v73.1
		c0,40.2-1,73-2.2,72.8C1382.3,2199.3,1372.9,2197.3,1362.6,2195L1362.6,2195z"
        />
        <path
            id="path69"
            class="st0"
            d="M1142.8,1919.6c-34.2-29.5-81.9-79.2-103-107.2l-17.2-22.9l27.8-48.3
		c15.3-26.6,28.5-48.3,29.4-48.4c0.8,0,8.5,9.1,17,20.2c15.8,20.6,68.7,73.7,95,95.4l14.6,12l-16,60.7
		c-8.8,33.4-17.4,60.6-19.1,60.6C1169.7,1941.6,1156.8,1931.7,1142.8,1919.6z"
        />
        <path
            id="path70"
            class="st0"
            d="M1038.1,1617.8c-21.9-33.1-40.4-62.5-41.1-65.3c-2-7.8,70.2-78.9,73.8-72.7
		c1.4,2.5,16.8,25.8,34.2,51.8l31.6,47.3l-27.2,47.2c-14.9,25.9-28.1,48.2-29.3,49.5C1078.9,1676.8,1060,1650.8,1038.1,1617.8
		L1038.1,1617.8z"
        />
        <path
            id="path71"
            class="st0"
            d="M1064.5,1456.4c-46-77.6-50.5-86.1-46.9-89.4c5-4.5,83.8-49.8,84.8-48.7
		c3.2,3.6,40.5,68.5,40.5,70.5c0,1.4-16.5,19-36.8,39.1l-36.8,36.6L1064.5,1456.4z"
        />
        <path
            id="path72"
            class="st0"
            d="M1086,1274.1c-10.3-19.1-18.3-35.2-17.6-35.9c0.7-0.7,23.1-7.1,49.8-14.4l48.6-13.2l12.2,22.1
		c6.7,12.1,11.4,23.3,10.4,24.9c-1,1.5-17.6,11.9-36.9,23c-19.4,11.1-38,22-41.5,24.3C1105.1,1308.6,1103.9,1307.2,1086,1274.1
		L1086,1274.1z"
        />
        <path
            id="path73"
            class="st0"
            d="M1391.8,2581.1v-72.4l26.2,0c77.8-0.1,169.3-34,271.5-100.7c27.8-18.1,29.3-18.7,30.9-12.4
		c0.9,3.7,8.8,33,17.5,65.1l15.8,58.5l-10.7,7.7c-46.7,33.5-123,75.1-175.9,95.8c-53.3,20.8-83.7,27.6-132.6,29.3l-42.7,1.5V2581.1z
		"
        />
        <path
            id="path74"
            class="st0"
            d="M1342.3,2492.4c-75.6-19.8-158.8-61.6-242.3-122c-15.3-11-27.6-21.2-27.4-22.6
		c0.2-1.4,7.5-29.9,16.3-63.3c14.6-55.9,16.4-60.5,21.2-57c93.9,67.8,185.1,112.6,255.6,125.6l20.2,3.7v71.5v71.5l-8.2-0.1
		C1373,2499.5,1357.2,2496.3,1342.3,2492.4L1342.3,2492.4z"
        />
        <path
            id="path75"
            class="st0"
            d="M1061.8,2179.2c-57.2-49-115.4-111.6-155.6-167.2l-6.7-9.2l29-50.1l29-50.1l15.4,20.8
		c36.3,48.9,88.7,102.5,141.4,144.8c10.7,8.6,19.6,17.1,19.6,18.9c0.2,9.1-31.6,121.7-34.4,121.7
		C1097.7,2208.7,1080.7,2195.4,1061.8,2179.2L1061.8,2179.2z"
        />
        <path
            id="path76"
            class="st0"
            d="M915.8,1830c-21.4-31.8-48.1-72.4-59.4-90.2l-20.5-32.5l37.2-37.4c31.6-31.7,37.7-36.6,40.2-32.4
		c1.6,2.8,25,38.2,51.9,78.8c35.5,53.6,48.2,75.1,46.5,78.6c-7.7,15.5-53.7,92.7-55.2,92.7C955.4,1887.7,937.1,1861.7,915.8,1830z"
        />
        <path
            id="path77"
            class="st0"
            d="M902,1605.5c-10.2-16-54.3-91-68.2-115.9c-3.9-7-6.5-13.2-5.8-13.8c0.7-0.6,20.1-11.9,43-25.2
		l41.8-24.1l30.3,51.4c16.7,28.3,33,55.8,36.2,61.2l5.8,9.8l-36.4,36.4l-36.4,36.4L902,1605.5z"
        />
        <path
            id="path78"
            class="st0"
            d="M892.9,1375.5c-26.7-49.1-41.9-79.1-40.6-80.2c2.3-1.9,98.6-26.4,99.4-25.3
		c3.1,3.9,50,93.2,50,95.1c0,1.7-65.6,41-84.5,50.6C916.2,1416.3,905.3,1398.2,892.9,1375.5L892.9,1375.5z"
        />
        <path
            id="path79"
            class="st0"
            d="M928.9,1207.5c-14.3-29.3-26.1-54.3-26.1-55.5c0-1.2,25.5-2.2,56.7-2.2h56.7l19.9,40.9
		c10.9,22.5,19.2,41.6,18.4,42.4c-1.1,1.1-95.9,27.7-98.8,27.7C955.3,1260.7,943.2,1236.8,928.9,1207.5z"
        />
        <path
            id="path80"
            class="st0"
            d="M1008.3,1113c-15.1-38.9-23.1-64.7-20.8-66.9c1-1,29.2,5.5,62.7,14.4l60.9,16.2l5,16.3
		c2.7,9,7.9,23.4,11.4,32.2c3.5,8.7,6.4,16.5,6.4,17.2s-25.5,1.4-56.8,1.4h-56.8L1008.3,1113z"
        />
        <path
            id="path81"
            class="st0"
            d="M1006.3,2458.5c-79.5-64.1-160.4-148.2-212.3-220.7l-16.8-23.4l25.6-44.1
		c14.1-24.2,26.9-46.5,28.5-49.6c2.5-4.7,5.4-2.1,21.2,19.5c41.2,56.4,118.4,136.4,181.2,187.9l30.4,24.9l-7.6,27.6
		c-4.2,15.2-11.8,43.3-16.9,62.4l-9.3,34.8L1006.3,2458.5z"
        />
        <path
            id="path82"
            class="st0"
            d="M821.9,2086.5c-19.1-27-92.2-137.3-118.4-178.9l-26.3-41.7l37.3-37.3l37.3-37.3l19.1,30.9
		c14.7,23.7,102.9,156.4,118.1,177.5c1.7,2.3-7.3,20.8-25.5,52.2c-15.4,26.8-28.8,48.6-29.8,48.6
		C832.7,2100.7,827.4,2094.3,821.9,2086.5z"
        />
        <path
            id="path83"
            class="st0"
            d="M721.4,1729.4c-16.4-27.6-41.9-71-56.5-96.5c-24.3-42.1-26.2-46.7-21.5-50.1
		c9.8-7.1,78.6-46.1,81.5-46.1c1.6,0,11.9,15.9,22.9,35.2c11,19.4,33.5,57.5,49.9,84.8l29.9,49.5l-36.5,36.8
		c-20.1,20.2-37.2,36.7-38.1,36.7S737.9,1757,721.4,1729.4L721.4,1729.4z"
        />
        <path
            id="path84"
            class="st0"
            d="M717.4,1504.6c-18.4-31.6-78.5-146-78.5-149.5c0-2.5,33.8-12.5,91.9-27.3c5.6-1.4,8.4,2,20.7,24.9
		c7.8,14.6,25.5,47.2,39.3,72.4c13.8,25.3,25.1,46.9,25.1,48c0,1.1-12.5,9.2-27.8,17.8c-15.3,8.7-34.7,19.9-43.3,24.9l-15.5,9.1
		L717.4,1504.6z"
        />
        <path
            id="path85"
            class="st0"
            d="M706.5,1248c-18.7-38.4-36.7-76.2-40.1-84l-6.2-14.2l56.1,0l56.1,0l32.6,68.8
		c17.9,37.9,32.8,69.9,33,71.2c0.3,1.9-86.8,27.4-95,27.8C741.5,1317.7,725.1,1286.3,706.5,1248L706.5,1248z"
        />
        <path
            id="path86"
            class="st0"
            d="M770.8,1129.5c-24.2-54.7-57.1-151.6-52.9-155.8c1.9-1.9,118.8,28.4,122.5,31.7
		c1.1,1,6.8,17.4,12.5,36.3c8.5,28,20.1,58.9,36.9,98.2c1.3,2.9-11,3.8-55.6,3.8h-57.2L770.8,1129.5z"
        />
        <path
            id="path87"
            class="st0"
            d="M910.3,1016.6c-31.4-8.6-58.5-16.6-60.4-17.7c-6-3.7-14.1-68.6-12.3-99c1.6-28,9.1-56.2,14.9-56.2
		c2.5,0,102.4,56.3,121.7,68.6c3.2,2.1,3,5.7-1.1,20.1c-4.1,14-4.7,24-3.2,49.2c1,17.4,2.7,36,3.7,41.4c1.4,7.2,0.8,9.7-2.3,9.5
		C969.2,1032.4,941.7,1025.2,910.3,1016.6L910.3,1016.6z"
        />
        <path
            id="path88"
            class="st0"
            d="M545.2,1855.7c-27.3-45.9-59.8-101.2-72.2-122.8l-22.5-39.4l43.9-25.2l43.9-25.2l25.5,44.9
		c14,24.7,42.1,72.7,62.5,106.6c20.3,33.9,38.1,63.8,39.6,66.4c2,3.6-5.8,13.1-34.2,41.4l-36.8,36.7L545.2,1855.7z"
        />
        <path
            id="path89"
            class="st0"
            d="M523.9,1603.5c-62.2-111.7-102.3-189.7-99.2-192.5c1.4-1.2,21.5-7.3,44.6-13.4
		c23.1-6.1,44.2-11.8,47-12.6c3.8-1.1,10.3,8.6,28.3,42.9c12.8,24.4,36.6,68.6,52.8,98.2c16.2,29.6,29.5,54.8,29.5,56
		c0,1.8-82.5,50.7-85.6,50.7C540.6,1632.7,532.8,1619.6,523.9,1603.5z"
        />
        <path
            id="path90"
            class="st0"
            d="M494.4,1314c-27.6-55.2-77.6-160.2-77.6-163.2c0-0.7,25.8-0.8,57.3-0.4l57.3,0.8l15.8,34.5
		c8.7,19,29.9,63.6,47.2,99.1l31.4,64.6l-48.2,12.7c-26.5,7-49.2,12.7-50.4,12.7C525.9,1374.7,511.2,1347.4,494.4,1314z"
        />
        <path
            id="path91"
            class="st0"
            d="M530.1,1132.5c-2.6-6.2-13.5-32.4-24.2-58.3c-26.1-62.9-59.7-167.7-55.2-172.2
		c1.6-1.6,119.2,28.6,122.8,31.6c1.2,1,7,18.6,12.9,39.3c13.5,46.9,27.8,87,48,134.2l15.7,36.8h-57.7h-57.7L530.1,1132.5z"
        />
        <path
            id="path92"
            class="st0"
            d="M641.2,944.6c-30.9-8.5-57.4-16.8-58.9-18.4c-5.7-6.2-15.9-75.9-17.4-120
		c-1.8-49.6,2.1-76.6,14.6-103.5l6.9-14.7l63.3,36.5l63.3,36.5l-7.2,15.8c-14.8,32.4-15.9,102.4-2.6,165.1c3.6,17,3.5,18.7-0.9,18.4
		C699.5,960.2,672.1,953.1,641.2,944.6L641.2,944.6z"
        />
        <path
            id="path93"
            class="st0"
            d="M785.2,795.1c-71.5-41.5-68.4-36.1-37-67c22.4-22,52.7-42.5,91.2-61.6
		c48.4-24,37.6-27.2,91.9,27.2l47.4,47.4l-28.1,13.6c-15.5,7.5-36,18.9-45.6,25.2c-17.6,11.7-53.1,44.7-53.1,49.3
		c0,1.4-1,2.4-2.2,2.2C848.3,831.3,819.3,815,785.2,795.1L785.2,795.1z"
        />
        <path
            id="path94"
            class="st0"
            d="M1037.9,791.3c-25.5-25.5-45.7-47-45-47.7c5.3-5,93.6-29.9,127.9-36l9.5-1.7l26.3,45.6
		c14.4,25.1,28.1,48.5,30.3,52c4,6.2,3.3,6.5-24.9,13c-15.9,3.7-38.5,9.9-50.1,13.9c-11.7,4-22.7,7.2-24.4,7.2
		C1085.7,837.7,1063.4,816.9,1037.9,791.3L1037.9,791.3z"
        />
        <path
            id="path95"
            class="st0"
            d="M260.1,1330.5c-27.4-55.7-56.8-116.8-65.4-135.8c-8.6-19-16.8-36.9-18.4-39.8
		c-2.6-5,0.5-5.3,54.4-4.5l57.2,0.8l28,60c15.4,33,42.7,89.7,60.7,126c18,36.3,33.1,66.8,33.5,67.7c0.9,1.8-88.8,26.8-96.1,26.8
		C311.5,1431.7,290,1391.3,260.1,1330.5L260.1,1330.5z"
        />
        <path
            id="path96"
            class="st0"
            d="M284.9,1128c-32.3-75.8-52.8-127-64.6-161.2c-15.5-45.2-41.2-135.3-39.2-137.4
		c1.2-1.2,67.4,15.6,111.1,28.1l15,4.3l7.1,29.2c11.3,46.7,43,138.8,67.7,196.6c12.5,29.3,22.8,54,22.8,54.8
		c0,0.8-25.5,1.4-56.6,1.4h-56.6L284.9,1128z"
        />
        <path
            id="path97"
            class="st0"
            d="M1079.7,964.9c-18.9-10.9-46.9-27.2-62.2-36.1l-27.8-16.2l4.9-7.4c6.5-10,37.6-33,59.1-43.9
		c32.7-16.5,25.5-19.6,78.5,33.5l47.4,47.5l-18.7,9.4c-10.3,5.2-24.5,14.8-31.5,21.3c-7.1,6.5-13.4,11.8-14.1,11.8
		S1098.7,975.8,1079.7,964.9L1079.7,964.9z"
        />
        <path
            id="path98"
            class="st0"
            d="M1233.7,871.7c-15.2-26.2-28.4-49.7-29.4-52.3c-1.5-4,3.3-5.2,32.3-8.2
		c18.7-1.9,39.5-3.5,46.2-3.5h12.2l14.1,52.8c7.8,29,13.7,53.2,13.2,53.7s-14.5,1.8-31,3l-30,2.1L1233.7,871.7z"
        />
        <path
            id="path99"
            class="st1"
            d="M120.3,410.9l-63.2-36.3l5-8.4c9.8-16.7,46-56.5,71.8-79.1c50-43.7,138.6-96.7,217.9-130.4
		l29.6-12.6l47.7,47.6l47.7,47.6l-9.8,4.3c-128.8,56-217.6,116.1-265.9,180.2l-17.7,23.5L120.3,410.9z"
        />
        <path
            id="path100"
            class="st1"
            d="M535.8,289.2l-47.5-47.6l38.5-14.1c45.8-16.8,111.7-36.7,163.4-49.4
		c42-10.3,108.9-24.3,116.5-24.3c3.3,0,15,17.5,34.4,51.1c16.2,28.1,29,51.6,28.4,52.2c-0.6,0.6-13.3,3.3-28.1,6
		c-51.5,9.5-126.3,29.3-187.5,49.6C620,324,590.3,334,587.8,335C584.8,336.2,568.2,321.6,535.8,289.2L535.8,289.2z"
        />
        <path
            id="path101"
            class="st1"
            d="M386.8,564.7c-36.6-21.3-61.1-37.4-60.5-39.7c2.1-8,26.6-36.7,49.8-58.4
		c40.7-37.9,106.6-78.6,176.6-109.1l29.4-12.8l47.9,47.8l47.9,47.8l-14.3,5.8c-7.9,3.2-30.9,14.2-51.1,24.5
		c-66,33.6-115.1,70.3-144,107.6c-9.4,12.2-17.8,22.2-18.7,22.3S420.6,584.4,386.8,564.7L386.8,564.7z"
        />
        <path
            id="path102"
            class="st1"
            d="M507.8,908.8c-31.6-8.5-58.4-16.4-59.4-17.5c-2.8-2.8-9.2-31.9-15.4-70.1
		c-7.4-45.2-7.6-129.6-0.3-158.5c7-27.7,17.1-50.5,21.9-49.4c2.2,0.5,31,16.4,64.1,35.4c43.7,25,59.8,35.7,58.8,39
		c-0.8,2.5-5.2,14.6-9.7,27c-7.9,21.6-8.3,24.7-8.2,78c0.1,51.4,2.3,73.9,12.1,122.2c1.5,7.3,0.9,9.7-2.2,9.5
		C567.2,924.4,539.4,917.3,507.8,908.8L507.8,908.8z"
        />
        <path
            id="path103"
            class="st1"
            d="M247.3,839.1c-26.4-7.2-52.9-14.5-58.9-16.2l-10.9-3.2l-7.8-41.2
		c-26.3-138.7-23.9-236.8,7.2-303.3c8.7-18.5,9.1-19,15.7-14.7c3.7,2.4,32.1,18.9,63,36.7c30.9,17.8,56.2,33.3,56.2,34.6
		s-4,11-8.8,21.7c-14.9,32.9-19.7,62.9-19.4,122.4c0.2,52.8,4.8,95.6,16,150.4c5,24.2,5,26.5,0.6,26.3
		C297.5,852.3,273.7,846.3,247.3,839.1L247.3,839.1z"
        />
        <path
            id="path104"
            class="st1"
            d="M653.8,719.1c-32.2-18.8-59.8-34.7-61.5-35.3c-4.9-1.8,13.3-25.3,35.7-46
		c11.5-10.7,32.3-26.9,46.2-36c23.6-15.6,100.5-55,107.2-55.1c1.7,0,24.3,21.3,50.3,47.3l47.3,47.3l-23.3,10
		c-51,21.8-102.3,57.3-125.1,86.4c-6.7,8.5-13.5,15.5-15.2,15.5C713.7,753.3,686,737.9,653.8,719.1L653.8,719.1z"
        />
        <path
            id="path105"
            class="st1"
            d="M736.8,490.2c-39.6-39.7-46.6-48-42-49.8c59.7-23.4,148.9-48.6,223.6-63l20.1-3.9l30.1,52.3
		c18.8,32.6,28.7,52.7,26.4,53.4c-2,0.6-12.4,2.7-23.2,4.6c-44.7,8.1-137.6,34.6-183,52.3C785.8,537.2,768.9,522.4,736.8,490.2
		L736.8,490.2z"
        />
        <path
            id="path106"
            class="st1"
            d="M783.9,92.5l-30.3-52.2l22.8-3.4c59.4-8.8,195.6-22,268.9-26l36-2l13.2,50.6
		c7.3,27.8,13.7,52.1,14.4,53.8c0.7,2.1-22.7,5-68.7,8.4c-73.7,5.5-168.6,15-198.9,19.9c-9.9,1.6-20.1,2.9-22.6,2.9
		C816,144.7,802.2,124.1,783.9,92.5z"
        />
        <path
            id="path107"
            class="st1"
            d="M917.8,324.2c-13.6-23.7-27.3-47.2-30.4-52.4l-5.6-9.4l9.8-1.8c36-6.8,246.4-25.7,249.6-22.5
		c1.5,1.5,28.6,100.2,28.6,104.2c0,1.4-14.5,3.5-32.2,4.6c-61.8,3.9-154.8,13.3-185.6,18.7C942.6,367.2,942.4,367,917.8,324.2
		L917.8,324.2z"
        />
        <path
            id="path108"
            class="st1"
            d="M937.8,691.2l-47.5-47.6l20.5-7.6c29.1-10.8,80.7-25.2,120.9-33.7c18.9-4,34.6-7,34.9-6.7
		c7.6,9.2,58,102.4,56.2,103.9c-1.4,1.2-14.7,4.7-29.5,7.6c-21.3,4.3-84.5,22.6-104.5,30.2C986.9,738.2,963.9,717.4,937.8,691.2
		L937.8,691.2z"
        />
        <path
            id="path109"
            class="st1"
            d="M920.8,873.2c-33.8-19.5-61.9-37.3-62.4-39.5c-1.4-6.4,37.8-41.3,63.5-56.6
		c12.9-7.7,32.2-17.7,42.8-22.2l19.4-8.2l47.5,47.5l47.5,47.5l-21.4,10.2c-25.7,12.3-55.5,33.1-67.1,46.9l-8.5,10L920.8,873.2z"
        />
        <path
            id="path110"
            class="st1"
            d="M1066.8,582.2c-18.3-28.8-55.5-97.1-53.7-98.7c4.7-4.2,161.1-19.1,180.6-17.3l10.2,1l14,52.5
		l14,52.5l-25.8,2.3c-62.4,5.5-122.3,11.6-128.3,13.1C1073.2,588.8,1070,587.3,1066.8,582.2L1066.8,582.2z"
        />
        <path
            id="path111"
            class="st1"
            d="M1207,455.2c-0.5-1.7-6.9-25.3-14.2-52.5c-10.6-39.6-12.4-50-9.2-51.9
		c2.2-1.3,48.6-3.2,103.1-4.2l99.1-1.9v54.5v54.5l-50.2,0.3c-27.6,0.2-67.6,1.2-88.9,2.2C1221.8,457.5,1207.7,457.2,1207,455.2
		L1207,455.2z"
        />
        <path
            id="path112"
            class="st1"
            d="M1168.5,758.7c-16.1-27.9-28.1-51.7-26.7-52.9c2.7-2.5,47.8-7.7,94.1-10.8l28.5-2l13.1,49.1
		c7.2,27,13.8,51.5,14.6,54.4c1.2,4.5-0.8,5.3-13.2,5.4c-8,0.1-29.6,1.8-47.9,3.8l-33.3,3.7L1168.5,758.7z"
        />
        <path
            id="path113"
            class="st1"
            d="M1138.7,892.1l-47.6-47.7l13.1-4.8c35.6-13,86.3-24.5,90.3-20.5c3.6,3.6,59.5,100.2,58.6,101.1
		c-0.4,0.4-13.6,4.1-29.3,8.3c-15.7,4.2-30.5,8.4-33,9.4C1187.8,939.2,1171,924.4,1138.7,892.1z"
        />
        <path
            id="path114"
            class="st1"
            d="M1045.3,1052.7c-31.4-8.5-58.5-16.5-60.4-17.7c-5.3-3.4-11-51.6-9.3-77.1
		c1.5-21.5,7-40.3,11.1-38.5c1,0.5,29.7,16.9,63.7,36.5l61.8,35.7l-3,8.7c-1.7,4.8-2.5,22.1-1.8,38.6c0.8,19.5,0.1,29.8-1.9,29.6
		C1103.7,1068.3,1076.7,1061.3,1045.3,1052.7L1045.3,1052.7z"
        />
        <path
            id="path115"
            class="st1"
            d="M774.4,980.3c-31.9-8.8-58.8-16.8-59.8-17.8c-3.5-3.5-12.5-60.4-14.5-91.7
		c-1.2-19.4-0.7-40,1.5-53.7c4.3-27.5,14.4-52.3,20.4-50c3.8,1.5,90,50.8,113.8,65.1l9.4,5.7l-6.1,15.7
		c-10.2,26.4-10.3,84.3-0.2,134.7c1.2,6,0.5,8.4-2.4,8.2C834.2,996.3,806.2,989,774.4,980.3L774.4,980.3z"
        />
        <path
            id="path116"
            class="st1"
            d="M1133.1,178.8c-7.7-29.3-13.4-54-12.5-54.9c2.2-2.2,72.9-5.4,176-8l89.2-2.2V168v54.1l-45.8,1.8
		c-25.2,1-74.8,2.5-110.2,3.5c-35.5,0.9-68.6,2.4-73.6,3.3l-9.1,1.6L1133.1,178.8z"
        />
        <path
            id="path117"
            class="st1"
            d="M1268.8,686.7c0-1-6.1-24.2-13.5-51.6c-7.4-27.3-13.5-50.9-13.5-52.4c0-4.2,14.7-5.5,81.8-7.5
		l62.2-1.8V629v55.7l-47.2,0c-26,0-52.3,0.9-58.5,1.9C1273.9,687.7,1268.8,687.7,1268.8,686.7L1268.8,686.7z"
        />
        <path
            id="path118"
            class="st1"
            d="M1317.4,867.1c-7.1-26.9-13.7-51.9-14.6-55.6l-1.7-6.8h42.3h42.3v54v54l-21.8,0
		c-12,0-24.5,0.8-27.8,1.6C1330.8,915.9,1329.2,911.7,1317.4,867.1L1317.4,867.1z"
        />
        <path
            id="path119"
            class="st1"
            d="M1391.8,744.7v-54h58.8c45.8,0,58.5,0.8,57.5,3.8c-0.7,2.1-7.2,26.4-14.4,54l-13.1,50.2h-44.4
		h-44.4V744.7z"
        />
        <path
            id="path120"
            class="st1"
            d="M1425.6,568.5l-33.7-1v-54.3V459l86.9,1.3c47.8,0.7,87.8,2.2,89,3.3
		c1.6,1.6-11.5,55.5-24.8,101.9C1541.3,571,1527.3,571.4,1425.6,568.5L1425.6,568.5z"
        />
        <path
            id="path121"
            class="st1"
            d="M1479.6,340.5l-87.7-0.9v-55.8V228l101.2,2.2c55.7,1.2,109.5,3.1,119.6,4.1l18.3,1.9l-14,52.5
		l-14,52.5l-17.9,0.1C1575.4,341.4,1527.8,341,1479.6,340.5z"
        />
        <path
            id="path122"
            class="st1"
            d="M1586.8,111.6c-30.5-1.1-86.9-2.2-125.2-2.5l-69.8-0.4V55V1.3l14.2-1.3
		c16.6-1.6,283.4,3.4,285.3,5.3c0.7,0.7-5.2,25.6-13.2,55.4l-14.5,54.1l-10.7-0.5C1647.1,113.9,1617.3,112.7,1586.8,111.6z"
        />
        <path
            id="path123"
            class="st1"
            d="M1870.3,246.4c-33.8-4-121.9-11.4-176.8-14.7c-27.9-1.7-51.3-3.6-52-4.3
		c-0.6-0.6,5.2-25.1,13.1-54.3l14.2-53.1l34.7,2c85.9,4.8,237.3,17.5,254.3,21.3c6.1,1.4,4.6,4.9-23.7,53.9
		c-24.7,42.9-31.4,52.4-36.6,52.1C1894.2,249.1,1881.9,247.8,1870.3,246.4L1870.3,246.4z"
        />
        <path
            id="path124"
            class="st1"
            d="M1717.3,467.3c-19.8-2.1-58.9-5.4-86.8-7.3c-28-1.9-51.1-3.7-51.3-4.1
		c-0.9-1.2,27.7-104.2,29.4-105.9c3-3,222.6,14,226.1,17.6c0.5,0.5-12.4,23.7-28.6,51.7l-29.5,50.9l-11.6,0.4
		C1758.6,470.9,1737.1,469.4,1717.3,467.3L1717.3,467.3z"
        />
        <path
            id="path125"
            class="st1"
            d="M1594.3,692.1c-19.8-2.1-45.3-3.9-56.6-4c-19.8-0.3-20.5-0.6-18.9-7.1
		c0.9-3.7,7.4-28.4,14.4-54.9l12.7-48.2l16.7,1.1c43.1,2.8,131.3,10.3,137.1,11.7c6,1.5,4.3,5.3-23.7,53.8
		c-27.4,47.5-30.8,52.2-37.9,51.8C1633.8,696,1614.1,694.1,1594.3,692.1L1594.3,692.1z"
        />
        <path
            id="path126"
            class="st1"
            d="M1474.1,916l-18.2-1.8l10.1-37.5c5.5-20.6,12.1-44.8,14.7-53.7l4.6-16.2l36.5,2.1
		c20.1,1.1,40.9,3,46.2,4.2l9.6,2.1l-29.6,51l-29.6,51l-13.1,0.3C1498.2,917.7,1484.1,917,1474.1,916z"
        />
        <path
            id="path127"
            class="st1"
            d="M1666.8,828.4c-12.9-4.7-35.2-10.9-49.5-13.8c-14.3-2.8-26.4-5.4-27-5.8
		c-1.1-0.7,55.8-100.4,59.1-103.4c5.4-4.9,95.7,17.1,130.7,31.9l11.7,4.9l-47.7,47.8c-26.2,26.3-49.1,47.6-50.7,47.4
		C1691.7,837.2,1679.7,833.1,1666.8,828.4L1666.8,828.4z"
        />
        <path
            id="path128"
            class="st1"
            d="M1646.4,976.1c-6-6.4-18.5-16.2-27.7-21.8c-9.2-5.6-16.8-10.8-16.8-11.7c0-0.8,21.4-23,47.6-49.1
		l47.7-47.6l24.9,13.1c23.6,12.4,62.7,45.5,62.7,53c0,2.6-112,69.7-123.8,74.2C1659,987.1,1652.4,982.5,1646.4,976.1L1646.4,976.1z"
        />
        <path
            id="path129"
            class="st1"
            d="M1865.8,622.7c-33.7-12.4-84.7-26.1-119.4-32.1c-13.7-2.4-25.5-4.9-26.3-5.6
		c-0.7-0.7,11.9-24.2,28.1-52.1l29.4-50.7l17.4,0.6c21.4,0.7,54.9,7.5,102.8,20.6c31.9,8.8,93.1,29.8,96.9,33.3
		c2,1.9-93.8,97.1-97.3,96.8C1895.7,633.3,1881.5,628.5,1865.8,622.7L1865.8,622.7z"
        />
        <path
            id="path130"
            class="st1"
            d="M1915.7,817.6c-16.1-20.8-49.8-46.6-83-63.5l-29-14.8l48.6-48.6l48.6-48.6l28.2,14.1
		c35.3,17.7,71.5,41.1,92.1,59.8c18.5,16.7,35.4,40,31.7,43.6c-3,2.8-116.6,68.6-122.3,70.8C1928.5,831.3,1921.8,825.5,1915.7,817.6
		L1915.7,817.6z"
        />
        <path
            id="path131"
            class="st1"
            d="M2074.3,419c-60.5-23.4-155.7-48.1-207.9-54c-12-1.3-18.4-3.3-17.6-5.5
		c0.7-1.8,14.2-25.6,30-52.8l28.7-49.5l11.4,0.9c20.5,1.6,79.6,12.6,117.9,22c39.1,9.5,122.8,36.3,148.3,47.4l14.8,6.5l-47.8,47.9
		c-26.3,26.3-48.5,47.8-49.3,47.7C2102,429.5,2089.2,424.8,2074.3,419z"
        />
        <path
            id="path132"
            class="st1"
            d="M2288.8,219.3c-62.7-28-216.1-69.1-285-76.3c-10.7-1.1-21.2-2.9-23.2-4
		c-2.6-1.4,5.1-17.3,25.7-52.9l29.4-50.9L2055,36c47.5,1.8,170.8,29.8,254.6,57.8c44.2,14.8,90.2,32,93.1,34.9
		c2,1.9-93.7,97.2-97.3,96.9C2303.7,225.4,2296.2,222.6,2288.8,219.3L2288.8,219.3z"
        />
        <path
            id="path133"
            class="st1"
            d="M2455.3,501.4c-34.3-52-119.1-114.3-212.2-156.1c-16.1-7.2-29.2-13.8-29.2-14.7
		c0-0.8,21.4-22.9,47.5-49l47.5-47.5l22.2,9.4c66.3,28.2,149,77.9,193.2,116.1c25.3,21.9,55.7,56.3,66.4,75.2l6.4,11.3l-60.6,35.1
		c-33.3,19.3-62.5,35.8-64.9,36.7C2468.8,519.1,2463.3,513.4,2455.3,501.4L2455.3,501.4z"
        />
        <path
            id="path134"
            class="st1"
            d="M2189.1,662.7c-22.4-35.5-76.8-77.3-141.8-109c-19.8-9.6-36.6-17.9-37.4-18.4
		c-0.7-0.5,20.2-22.4,46.4-48.7c38.5-38.5,49-47.5,53.9-46c3.3,1,23.6,10.6,45.1,21.2c73.5,36.5,134.4,83.1,161.5,123.8
		c6,9,10.6,16.6,10.2,16.8c-3.2,2.4-123,70.8-125.9,71.9C2199,675.1,2193.7,670.1,2189.1,662.7L2189.1,662.7z"
        />
        <path
            id="path135"
            class="st1"
            d="M2088.2,905.7c0-57-3.3-84.8-14.4-120.1c-4.1-13-6.3-24.6-4.9-25.8c1.4-1.2,30-18,63.6-37.4
		c38.1-22,62.1-34.2,63.9-32.4c5.2,5.2,17.2,44.2,22,71.3c6.3,36.2,8.9,89,6.2,127.9l-2.2,32l-24.5,6.7c-13.5,3.7-43.6,11.7-67,18
		l-42.6,11.3L2088.2,905.7z"
        />
        <path
            id="path136"
            class="st1"
            d="M1807.2,994.5c-0.1-26.9-1.7-43.3-5.2-55.2c-2.8-9.3-5.1-18.3-5.1-19.9
		c0-2.9,125.7-76.9,127.5-75c2.4,2.7,10.5,30.5,13.7,47.6c3.6,19,5.1,100.6,1.8,103.8c-0.9,0.9-31.1,9.6-67.1,19.3
		c-36,9.7-65.4,17.7-65.4,17.7L1807.2,994.5z"
        />
        <path
            id="path137"
            class="st1"
            d="M1649.8,1142.5c0-0.8,1.5-5.2,3.3-9.8c1.8-4.6,5.6-19.1,8.4-32.1l5.2-23.7l65.5-17.6
		c36-9.7,66.1-17.1,66.7-16.4c2.3,2.3-11.2,62.2-18.2,80.8l-7,18.7l-61.9,0.8C1677.7,1143.5,1649.8,1143.2,1649.8,1142.5
		L1649.8,1142.5z"
        />
        <path
            id="path138"
            class="st1"
            d="M1789.3,1252.4c-28-7.6-51.6-14.2-52.2-14.7c-0.7-0.5,8.1-20.5,19.5-44.4l20.7-43.5l61-0.1
		l61-0.1l-2.1,6.8c-4,13-52.2,110.2-54.5,110C1841.4,1266.3,1817.4,1260,1789.3,1252.4z"
        />
        <path
            id="path139"
            class="st1"
            d="M1637,1287.1l-47.1-27.2l12.5-22.8c6.9-12.6,12.8-23.3,13.2-23.8c0.8-1,106.9,26.5,108.8,28.2
		c1,0.8-29.6,57-36.9,67.8C1684.5,1313.7,1678.9,1311.3,1637,1287.1L1637,1287.1z"
        />
        <path
            id="path140"
            class="st1"
            d="M1912.4,1138.5c8.9-21.1,22.9-71.9,27.3-98.9c2.9-17.8,6.7-33.9,8.4-35.8
		c3.5-3.8,128-37.8,130.2-35.5c2.4,2.4-8.5,62.8-17.4,96.7c-4.7,17.8-12.5,42.4-17.4,54.8l-8.9,22.5l-62.2,0.8
		C1913.8,1143.8,1910.3,1143.5,1912.4,1138.5L1912.4,1138.5z"
        />
        <path
            id="path141"
            class="st1"
            d="M2370.7,849c6.2-85.9-6.4-179.6-32-239.4c-1.6-3.7,11.8-12.7,61.5-41.5
		c37.4-21.7,64.6-35.6,66.2-34c5.6,5.6,23.4,61.2,29.2,91.3c9.4,48.9,13.2,115.9,9.7,171.5c-1.7,26.2-3.6,48.2-4.4,49
		c-0.8,0.8-28.4,8.6-61.4,17.4c-33,8.8-62.5,16.8-65.6,17.8C2368.5,882.6,2368.4,880.9,2370.7,849L2370.7,849z"
        />
        <path
            id="path142"
            class="st1"
            d="M2650,787.3c10.4-121.8-1-232.1-32-310.8c-5.3-13.4-9.6-25.3-9.6-26.5
		c0-2.4,123.4-74.3,127.5-74.3c3.5,0,19.4,39.4,28.5,70.7c22.5,77.4,31.3,206.9,20.7,306.3l-2,18.5l-34.9,9.3
		c-19.2,5.1-49.5,13.3-67.4,18.1l-32.5,8.8L2650,787.3z"
        />
        <path
            id="path143"
            class="st1"
            d="M2440.4,1127.3c27.8-63,52.5-161.4,65.8-262.6l1.8-13.5l60.7-16.1c33.4-8.9,63-16.8,65.9-17.6
		c7-1.9,6.9,7.1-0.9,57.2c-13.1,84.6-34,164.2-60.5,230.8l-15.2,38.2h-62.4h-62.4L2440.4,1127.3z"
        />
        <path
            id="path144"
            class="st1"
            d="M2174.9,1137.6c15.6-29.1,39-114.9,47.5-174.4l5.3-36.7l65.4-17.5c36-9.6,66.1-16.9,66.8-16.1
		c2,2-7,59.1-15.9,100.9c-8.7,40.8-21.6,83.9-36.6,122.2l-10.9,27.8h-62.5C2172.1,1143.7,2171.6,1143.7,2174.9,1137.6z"
        />
        <path
            id="path145"
            class="st1"
            d="M2022.4,1314.6c-28.6-7.8-52.6-14.9-53.4-15.7c-0.8-0.8,9.8-24.2,23.7-52
		c13.8-27.8,29.8-61,35.4-73.8l10.3-23.2h62.2h62.2l-2.6,6.8c-11.8,30.2-74.3,158.2-81.9,167.5
		C2074.7,1328.4,2069.3,1327.4,2022.4,1314.6L2022.4,1314.6z"
        />
        <path
            id="path146"
            class="st1"
            d="M2249.3,1375.5l-50-13.6l30.9-61.8c17-34,39.4-80.7,49.7-103.8c10.4-23.1,19.8-43,20.9-44.3
		s29.2-1.9,62.4-1.5l60.4,0.8l-16.5,37.5c-9.1,20.6-34.7,74.3-56.9,119.2c-30.2,61.2-41.7,81.7-45.6,81.5
		C2301.6,1389.3,2276.8,1383,2249.3,1375.5L2249.3,1375.5z"
        />
        <path
            id="path147"
            class="st1"
            d="M2483.8,1438.5c-27.2-7.5-50-14.1-50.7-14.6s17.2-37.8,39.6-82.8c22.4-45,51.6-106.1,64.8-135.8
		l24.1-54l61.8-0.8l61.8-0.8l-2.1,6.8c-11.7,37.3-138.3,294.5-145.3,295.2C2535.3,1451.9,2511,1446,2483.8,1438.5z"
        />
        <path
            id="path148"
            class="st1"
            d="M2187.1,1940.5l-39.9-40l20.8-31.1c22.7-34,88.3-138.2,108.7-172.9c7.1-12,14.1-21.8,15.6-21.8
		s23,11.6,47.8,25.9c35.3,20.2,44.7,26.9,43.2,30.7c-4.6,11.9-99.2,163.8-139.9,224.5l-16.5,24.6L2187.1,1940.5z"
        />
        <path
            id="path149"
            class="st1"
            d="M2241.7,1636.3c-25.1-14.4-45.7-27.1-45.8-28.3c0-1.2,15.2-28.9,33.9-61.5
		c18.7-32.6,44.5-78.8,57.4-102.8c12.9-23.9,23.8-43.9,24.1-44.4c1.1-1.3,104.6,26.7,106.9,29c2.9,2.8-117,219.6-127.5,230.5
		C2288.1,1661.6,2276.9,1656.5,2241.7,1636.3z"
        />
        <path
            id="path150"
            class="st1"
            d="M2017.7,1771.1l-38.5-38.6l29.8-46.2c16.4-25.4,40.4-63.7,53.3-85.2
		c12.9-21.5,24.6-40.2,25.9-41.7c3.3-3.8,96.1,49.7,94.3,54.4c-4.7,12.3-121.2,195.9-124.3,195.9
		C2057.1,1809.7,2038.9,1792.4,2017.7,1771.1L2017.7,1771.1z"
        />
        <path
            id="path151"
            class="st1"
            d="M2039.1,1519.4c-24.3-14.2-44.2-26.9-44.2-28.2c0-1.3,12.6-24.4,28-51.2s34.6-61.1,42.6-76.1
		l14.6-27.3l42.1,11.2c23.2,6.2,47.8,12.7,54.6,14.6l12.5,3.4l-24,44.2c-26.9,49.5-70.6,126.2-75.2,132c-1.6,2.1-3.8,3.6-4.9,3.5
		C2084.2,1545.3,2063.4,1533.6,2039.1,1519.4L2039.1,1519.4z"
        />
        <path
            id="path152"
            class="st1"
            d="M1849.3,1602.7c-37.8-37.9-38.8-39.2-34.5-45.9c2.4-3.8,19.1-30.5,37.1-59.3
		c17.9-28.8,33.7-53.4,34.9-54.8c2.1-2.3,82.7,41.9,92.3,50.5c3.1,2.8-4,16-34.6,64.8c-46.3,73.7-52.8,83.7-54.8,83.7
		C1888.9,1641.7,1870.7,1624.2,1849.3,1602.7L1849.3,1602.7z"
        />
        <path
            id="path153"
            class="st1"
            d="M1840.3,1404.3c-24.8-14.5-46.1-26.7-47.4-27.3c-1.3-0.5,7.8-18.8,20.3-40.6
		c12.4-21.8,24.9-44.4,27.7-50.2c2.8-5.8,6.7-10.6,8.7-10.6c4.9,0,103.6,26.4,105.4,28.2c1.3,1.3-31.2,61.1-58.1,107l-11.6,19.7
		L1840.3,1404.3z"
        />
        <path
            id="path154"
            class="st1"
            d="M1681.6,1435c-23.1-23.1-38-40.3-37.1-42.8c4.7-12.1,42.3-66.9,45.3-66
		c1.9,0.5,23.4,12.5,47.6,26.5l44.1,25.5l-18.9,30.5c-24.3,39.2-40.9,65-41.7,65C1720.5,1473.7,1702.8,1456.3,1681.6,1435
		L1681.6,1435z"
        />
        <path
            id="path155"
            class="st1"
            d="M1550.1,1419.9c-16.1-28-29.2-52.3-29.2-54c0-1.7,6.1-11.5,13.6-21.7s14.9-20.7,16.4-23.3
		c2.2-3.8,10.2,2.7,41.9,34.2c21.5,21.4,39.1,40.1,39.1,41.4c0,2.5-36.3,54.6-46.9,67.4l-5.6,6.8L1550.1,1419.9z"
        />
        <path
            id="path156"
            class="st1"
            d="M1519.7,1622l-17.2-64.7l8.4-6.3c4.6-3.4,22-19.9,38.7-36.5l30.3-30.3l28.9,50.3
		c15.9,27.7,28.9,52.3,28.9,54.7c0,8.4-91.1,97.5-99.6,97.5C1537.5,1686.7,1529.2,1657.6,1519.7,1622L1519.7,1622z"
        />
        <path
            id="path157"
            class="st1"
            d="M1677.4,1640.3c-16.6-28.8-29.1-53.1-27.8-53.9c1.3-0.8,18.3-23.9,37.8-51.3l35.4-49.8l38.5,38.4
		c21.2,21.1,38.5,39.7,38.5,41.2c0,5-86.6,127.5-90.3,127.8C1708.5,1692.7,1694.1,1669.1,1677.4,1640.3z"
        />
        <path
            id="path158"
            class="st1"
            d="M1608.4,1953c-1.5-5.4-9.2-34.5-17.2-64.8l-14.6-55.1l8.9-6.4c34.2-24.7,81.2-69.7,115.9-111
		l7.2-8.6l30.5,52.9l30.5,52.9l-21.9,26.2c-12,14.4-33.9,37.7-48.6,51.7c-25.4,24.3-82.4,71.9-86.2,71.9
		C1611.9,1962.7,1609.9,1958.3,1608.4,1953z"
        />
        <path
            id="path159"
            class="st1"
            d="M1810.3,1870.8c-14.8-25.8-28.2-49.3-29.6-52.3c-2.1-4.3,3.4-13.6,25.8-43.8
		c15.7-21.1,40.3-56,54.9-77.4c14.5-21.5,27.2-40,28.3-41.2c1-1.2,19.8,15.7,41.6,37.6l39.8,39.8l-32,46.4
		c-30,43.4-99.2,137.9-100.9,137.8C1837.7,1917.7,1825.2,1896.6,1810.3,1870.8L1810.3,1870.8z"
        />
        <path
            id="path160"
            class="st1"
            d="M1684.4,2235.2c-0.8-2.2-8.9-31.6-17.9-65.4c-14.2-52.9-15.9-61.8-12-64
		c2.5-1.4,17.7-13,33.7-25.8c51.5-41.2,97.4-85.8,134.5-131l15-18.2l30.3,52.5l30.3,52.5l-13.8,17.6
		c-35.5,45.1-98.7,107.9-149.2,148.1C1694.2,2234.2,1686,2239.7,1684.4,2235.2L1684.4,2235.2z"
        />
        <path
            id="path161"
            class="st1"
            d="M1936.7,2089.3c-15.9-27.8-28.9-51.4-28.9-52.5c0-1.1,17.4-25.3,38.6-53.8
		c21.2-28.5,55.5-76.3,76.1-106.3l37.4-54.5l39.5,39.6l39.5,39.6l-36.6,53.9c-31.3,46.2-75.4,107.5-121.1,168.6
		c-6.5,8.7-12.7,15.8-13.7,15.8C1966.5,2139.7,1952.6,2117,1936.7,2089.3z"
        />
        <path
            id="path162"
            class="st1"
            d="M1741.6,2449.9c-9.5-35.7-16.2-65.8-14.8-67s14-10.8,28-21.2c64.7-48.3,149.1-128.4,190.3-180.7
		c11.4-14.5,21.6-25.3,22.7-24c1.1,1.3,15,25,31,52.8l29,50.5l-26,32c-33.2,40.8-112.5,120.1-157,156.9
		c-33.5,27.7-82.5,65.6-84.8,65.6C1759.4,2514.7,1751.1,2485.5,1741.6,2449.9z"
        />
        <path
            id="path163"
            class="st1"
            d="M1391.8,2429.5v-73.2l11.9,1.6c21,2.8,68.8-5,105.9-17.3c40.6-13.5,98.4-42,141.7-70.1
		c16.5-10.7,30.2-19.2,30.4-18.9c2.6,3,34,128.8,32.7,130.9c-3.7,6-76.4,49.9-112.4,67.9c-70.8,35.4-129.8,52.3-182.9,52.3h-27.3
		V2429.5z"
        />
        <path
            id="path164"
            class="st1"
            d="M1355.8,2646.2c-64.7-13.6-153.4-52.6-229.5-100.9c-40.1-25.4-88.5-61.6-88.5-66
		c0-4.6,29.8-118.3,31.5-120c0.5-0.5,19.6,11.8,42.5,27.4c94.9,64.7,181,104.6,250.8,116.3l23.2,3.9v71.4v71.4l-8.2-0.3
		C1373,2649.2,1363.2,2647.8,1355.8,2646.2L1355.8,2646.2z"
        />
        <path
            id="path165"
            class="st1"
            d="M1032.4,2318.1c-39-32.3-90.1-81.5-122.9-118.3c-27.1-30.4-69.7-85.8-69.7-90.8
		c0-2.7,43.6-79.9,52.6-93.1c3.3-4.9,5.6-2.9,22.5,19.5c40.4,53.4,91.5,106.3,150.1,155.3l34.7,29l-16.6,62
		c-9.1,34.1-17.3,62-18.2,62C1064,2343.7,1049.4,2332.2,1032.4,2318.1z"
        />
        <path
            id="path166"
            class="st1"
            d="M1361.8,2346.3c-54.7-11.4-137.1-49.3-202.5-93.3c-21.4-14.4-42-28.6-45.6-31.5l-6.6-5.3
		l16.9-63.4l16.9-63.4l19.7,14.3c47,34.1,108.3,67.4,153.2,83.2c22.2,7.8,36.2,11.5,65.2,17.5l6.8,1.4v71.9
		C1385.8,2358.6,1388.2,2351.8,1361.8,2346.3L1361.8,2346.3z"
        />
        <path
            id="path167"
            class="st1"
            d="M1391.8,2128.2v-72.4l14.2,0c47.8-0.1,115.9-24.9,176.1-64.1c21.2-13.8,25.6-15.7,26.9-11.4
		c0.9,2.8,8.4,30.7,16.7,62.1c8.3,31.4,15.7,58.6,16.4,60.6c3.3,9.1-101.5,66.4-153,83.7c-27,9.1-38.6,11.3-65.1,12.5l-32.2,1.5
		V2128.2z"
        />
        <path
            id="path168"
            class="st1"
            d="M1351.1,2040.7c-42.3-11.4-93.9-37-143.8-71.2c-13.2-9.1-25-17.4-26.3-18.6
		c-1.9-1.7,28.4-121.7,31.5-124.8c0.5-0.5,11.7,6.5,24.9,15.5c43.4,29.8,115.9,61.2,141.6,61.2h6.8v72v72l-6.8-0.2
		C1375.4,2046.5,1362.8,2043.8,1351.1,2040.7z"
        />
        <path
            id="path169"
            class="st1"
            d="M1391.8,1826.6v-73.9h14.7c26.2,0,69.1-16.3,107.6-40.9c8.7-5.6,16.9-10.1,18.2-10.1
		c1.3,0,9.6,27.3,18.4,60.8c8.8,33.4,16.6,62.4,17.3,64.4c1.6,4.4-30.4,25.4-64.5,42.5c-32.4,16.2-64.2,26.4-90.5,29l-21.2,2.1
		V1826.6z"
        />
        <path
            id="path170"
            class="st1"
            d="M1354.3,1739.6c-34.1-11.2-103.4-49.4-103.5-57.1c0-3,25.3-99.2,30.3-115l3.1-9.8l12.5,7.7
		c25.6,15.7,53.8,28.7,70.4,32.5l17.1,3.9l0.8,72.5C1386,1757.5,1389.1,1751,1354.3,1739.6L1354.3,1739.6z"
        />
        <path
            id="path171"
            class="st1"
            d="M1391.8,1523.6v-73.8l8.2-0.1c9.9-0.1,38.5-11.5,50.8-20.3l8.9-6.4l17,63.6
		c9.4,35,17,65.1,17,66.8c0,4-39.3,26.7-59,34.2c-8,3-20.9,6.5-28.8,7.7l-14.2,2.1V1523.6z"
        />
        <path
            id="path172"
            class="st1"
            d="M1243.5,1511.8c-19.1-19-34.7-36.8-34.7-39.5s12.4-26.6,27.5-52.9l27.5-47.9l19.7,19.6
		c10.9,10.8,22.2,21.4,25.3,23.6c5.3,3.8,4.8,6.6-11.4,66.7c-9.3,34.5-17.5,63.2-18.1,63.8
		C1278.8,1545.8,1262.6,1530.8,1243.5,1511.8L1243.5,1511.8z"
        />
        <path
            id="path173"
            class="st1"
            d="M1180.2,1789.2c-31.3-27.4-63.1-60.4-82.9-86.2l-14-18.2l28.8-50.2l28.8-50.2l7.7,9.9
		c22.9,29.3,56.9,63.4,85.4,85.7l8.6,6.7l-15.8,59.3c-8.7,32.6-16.7,61-17.7,63C1207.7,1811.5,1198.1,1804.9,1180.2,1789.2
		L1180.2,1789.2z"
        />
        <path
            id="path174"
            class="st1"
            d="M1106.6,2053.1c-37.5-31.4-98.6-94.4-123.6-127.6c-11.1-14.7-20.1-28-20.1-29.5
		c0-4,54.5-98.3,56.7-98.1c1,0.1,9.9,11,19.8,24.3c21,28.2,82.4,90.4,110.6,112c10.8,8.2,19.7,16.4,19.8,18
		c0.5,5.1-31.3,124.5-33.2,124.5C1135.6,2076.7,1122.1,2066.1,1106.6,2053.1z"
        />
        <path
            id="path175"
            class="st1"
            d="M733.3,2151.5c-38.6-56.3-98-147.2-122-186.7l-12.4-20.5l35.7-35.8
		c19.6-19.7,36.5-35.8,37.4-35.8s11.7,15.9,23.9,35.2c31.1,49.4,85.2,131.4,111.8,169.3l22.5,32.1l-27.8,48.3
		c-15.3,26.6-28.3,48.9-29,49.5C772.7,2207.8,754.7,2182.7,733.3,2151.5L733.3,2151.5z"
        />
        <path
            id="path176"
            class="st1"
            d="M860.3,1946.4c-18.7-27.4-49.8-74.4-69.1-104.5l-35.1-54.7l36.5-36.8
		c20.1-20.2,37.3-36.8,38.2-36.8s4.2,4.4,7.3,9.8c9.6,16.6,85.6,131.7,100.8,152.6l14.4,19.9l-27.9,48.5
		c-15.4,26.7-28.6,49.2-29.5,50.1C895,1995.5,879,1973.8,860.3,1946.4z"
        />
        <path
            id="path177"
            class="st1"
            d="M650,1821c-29.2-48.1-46.7-77.7-79.4-134.5l-27-46.8l44.2-25.5l44.2-25.5l18.9,33.3
		c10.4,18.3,36.5,62.8,57.9,98.8l39,65.5l-35.7,35.8c-19.6,19.7-36.6,35.8-37.8,35.8C673.2,1857.7,662.2,1841.2,650,1821L650,1821z"
        />
        <path
            id="path178"
            class="st1"
            d="M975.7,1720.5c-22.8-34.2-45.7-69.1-50.9-77.6l-9.4-15.3l36.5-36.5l36.5-36.5l41.9,63.4
		c23.1,34.9,42.4,64.6,42.9,66c0.9,2.4-53,98.7-55.3,98.7C1017.6,1782.7,998.5,1754.7,975.7,1720.5L975.7,1720.5z"
        />
        <path
            id="path179"
            class="st1"
            d="M1107.6,1523.5c-16.9-25.4-31.4-48-32.3-50.3c-0.9-2.4,13.4-19,35.5-41.1l37.1-37l23.7,35.5
		c13,19.5,24.1,37.2,24.7,39.3c1,3.9-52.9,99.7-56.1,99.7C1139.1,1569.7,1124.5,1548.9,1107.6,1523.5L1107.6,1523.5z"
        />
        <path
            id="path180"
            class="st1"
            d="M812.9,1669.5c-17.1-28.4-52.7-89.1-73.8-125.8l-7.2-12.5l42.7-24.6
		c23.5-13.6,43.5-25.1,44.5-25.6c0.9-0.5,10.3,14.2,20.8,32.7c10.5,18.5,29.6,51,42.5,72.3c12.9,21.3,23.4,39.5,23.4,40.5
		s-16.6,18.4-36.8,38.6l-36.8,36.7L812.9,1669.5z"
        />
        <path
            id="path181"
            class="st1"
            d="M983.1,1531.9c-18.5-29.5-62.3-105.3-62.2-107.8c0-1.6,12.5-9.9,27.8-18.5
		c15.2-8.6,34.6-19.7,43.1-24.6l15.4-9l21.3,36.6c11.7,20.2,24.7,42.1,28.7,48.8l7.4,12.1l-37.1,37l-37.1,37L983.1,1531.9z"
        />
        <path
            id="path182"
            class="st1"
            d="M1129.7,1351.1c-10.9-18.4-19.8-34.6-19.8-36c0-1.9,70.6-44.4,84.3-50.7
		c1.4-0.7,19.4,27.5,28.5,44.6c0.5,0.9-15.7,18.3-36.1,38.6l-37,36.9L1129.7,1351.1z"
        />
        <path
            id="path183"
            class="st1"
            d="M1044.3,1192.5c-10.2-21-18.6-39.3-18.6-40.5s25.4-2.2,56.3-2.1l56.2,0.1l12.8,27.3
		c7.1,15,12.5,27.5,12,27.8c-1.8,1.1-95.1,25.7-97.6,25.7C1064.1,1230.7,1054.6,1213.5,1044.3,1192.5z"
        />
        <path
            id="path184"
            class="st1"
            d="M984.1,1316.1c-14-25.9-23.9-47.7-22.5-49c2.9-2.6,97.4-28.2,98.5-26.7
		c8.2,11.3,37,70.3,35.2,72.1c-2.1,2.1-84.1,50.3-85.6,50.3C1009.5,1362.7,997.9,1341.7,984.1,1316.1L984.1,1316.1z"
        />
        <path
            id="path185"
            class="st1"
            d="M794.8,1418.9c-15.4-28.4-33.2-61.4-39.6-73.3l-11.7-21.6l8.5-2.1c4.7-1.1,27.3-7.2,50.3-13.5
		c23-6.3,42.1-11.1,42.4-10.8s4.9,9.4,10.2,20.1c5.3,10.7,19.8,38.1,32.2,60.9c12.4,22.8,22,41.8,21.4,42.4
		c-1.3,1.1-71.1,41.6-79.7,46.3C823.1,1470.2,820.5,1466.5,794.8,1418.9L794.8,1418.9z"
        />
        <path
            id="path186"
            class="st1"
            d="M600.6,1518c-18.2-33.4-42-77.7-53-98.5l-19.8-37.7l51.2-13.5l51.2-13.5l13.5,26.9
		c7.4,14.8,28.3,53.9,46.4,87s32.5,60.3,32.1,60.6c-6.8,4.3-86.3,49.6-87.2,49.6C634.3,1578.7,618.9,1551.4,600.6,1518z"
        />
        <path
            id="path187"
            class="st1"
            d="M434.1,1663.6c-24.9-43.4-119.3-220.2-119.3-223.5c0-1.9,98.8-27.7,100.1-26.1
		c0.5,0.7,12.9,24.2,27.4,52.2c14.6,28,41.1,77.6,59,110.2c17.9,32.5,32.5,59.7,32.5,60.4c0,1-76.8,45.9-84.4,49.3
		C448.4,1686.6,441.5,1676.5,434.1,1663.6z"
        />
        <path
            id="path188"
            class="st1"
            d="M378.2,1326.2c-41.4-84.3-81.4-169.7-81.4-173.9c0-1.4,25.3-2.5,56.2-2.5l56.2,0l19.3,42.7
		c10.6,23.5,35.2,74.7,54.6,113.8l35.3,71.1l-15.6,4.5c-8.6,2.5-29.1,8-45.6,12.4s-32.3,8.6-35.2,9.4
		C417.9,1404.8,409.7,1390.3,378.2,1326.2L378.2,1326.2z"
        />
        <path
            id="path189"
            class="st1"
            d="M154.4,1104.5c-28.2-64.5-53.9-130.4-70-179.8C67.7,873.7,46.5,796,48.8,793.8
		c1.2-1.2,60,13.8,109,27.8l15.4,4.4l7.7,30.8c21.3,85,45.7,152.6,99.8,277.2l4.2,9.8h-56.6h-56.6L154.4,1104.5z"
        />
        <path
            id="path190"
            class="st1"
            d="M411.2,1138.5c-10.4-19.5-53.2-127.3-65.8-165.7c-17.8-54.4-31.8-104.9-29.7-107
		c1.8-1.8,119.2,28.9,123.8,32.4c1.8,1.4,5,10.3,7.1,19.8c10.3,46.7,42.4,137,76.3,214.5l4.9,11.2H471
		C419.8,1143.7,413.7,1143.2,411.2,1138.5z"
        />
        <path
            id="path191"
            class="st1"
            d="M644,1113c-27.8-63.5-63.4-170-58.5-174.9c2.1-2.1,116.4,28.2,121.2,32.1
		c1.9,1.5,4.4,7.8,5.5,13.9c3.4,18.4,30.2,96,44.5,128.9l13.4,30.8h-56.4h-56.4L644,1113z"
        />
        <path
            id="path192"
            class="st1"
            d="M616.5,1315.1c-22.2-44.2-72.3-150.3-74.9-158.6l-2.1-6.8h56.7h56.7l19,41.2
		c10.5,22.7,28.9,61,40.9,85.2l21.9,43.9l-12.6,3.3c-6.9,1.8-29.9,7.9-51,13.6l-38.4,10.3L616.5,1315.1z"
        />
        <path
            id="path193"
            class="st1"
            d="M886.6,1116c-13.2-31.1-34.5-94-34.7-102c0-2.9,1.6-5.2,3.7-5.1c2.1,0.1,30.1,7.3,62.2,16
		l58.5,15.9l13.8,40.2c7.6,22.1,16,45.3,18.8,51.5l5,11.2l-57.8,0l-57.8,0L886.6,1116z"
        />
        <path
            id="path194"
            class="st1"
            d="M823.2,1241.8c-12.8-26.7-27.8-58.3-33.3-70.3l-9.9-21.8h56.7h56.7l27.2,56
		c15,30.8,26.9,56.3,26.4,56.7c-0.4,0.4-21.7,6.3-47.3,13.2c-25.6,6.8-48,12.9-49.9,13.5C848,1289.8,836.2,1268.8,823.2,1241.8z"
        />
    </g>
</svg>
